<svg height='300px' width='300px'  fill="#000000" xmlns="http://www.w3.org/2000/svg" xmlns:xlink="http://www.w3.org/1999/xlink" version="1.1" x="0px" y="0px" viewBox="0 0 64 64" style="enable-background:new 0 0 64 64;" xml:space="preserve"><path d="M50,32c0-9.925-8.075-18-18-18s-18,8.075-18,18s8.075,18,18,18S50,41.925,50,32z M16,32c0-8.822,7.178-16,16-16  s16,7.178,16,16s-7.178,16-16,16S16,40.822,16,32z"></path><path d="M43.081,27.385l1.846-0.77c-1.115-2.675-3.004-4.909-5.461-6.461l-1.068,1.691C40.505,23.177,42.124,25.092,43.081,27.385z"></path><path d="M37.385,19.073c-1.035-0.432-2.123-0.737-3.232-0.908l-0.305,1.977c0.951,0.146,1.881,0.408,2.768,0.777L37.385,19.073z"></path><path d="M6,23.414V59c0,1.654,1.346,3,3,3s3-1.346,3-3V23.414l3.707-3.707C15.895,19.52,16,19.266,16,19V5c0-1.654-1.346-3-3-3  c-0.771,0-1.468,0.301-2,0.78C10.468,2.301,9.771,2,9,2S7.532,2.301,7,2.78C6.468,2.301,5.771,2,5,2C3.346,2,2,3.346,2,5v14  c0,0.266,0.105,0.52,0.293,0.707L6,23.414z M4,5c0-0.552,0.449-1,1-1s1,0.448,1,1v12h2V5c0-0.552,0.449-1,1-1s1,0.448,1,1v12h2V5  c0-0.552,0.449-1,1-1s1,0.448,1,1v13.586l-3.707,3.707C10.105,22.48,10,22.734,10,23v36c0,0.552-0.449,1-1,1s-1-0.448-1-1V23  c0-0.266-0.105-0.52-0.293-0.707L4,18.586V5z"></path><path d="M62,3c0-0.347-0.18-0.668-0.474-0.851c-0.295-0.184-0.663-0.198-0.973-0.044C55.277,4.743,52,10.046,52,15.944V31  c0,0.266,0.105,0.52,0.293,0.707L56,35.414V61c0,0.553,0.448,1,1,1h4c0.552,0,1-0.447,1-1V3z M60,60h-2V35  c0-0.266-0.105-0.52-0.293-0.707L54,30.586V15.944c0-4.572,2.262-8.734,6-11.213V60z"></path><path d="M32,40c0.272,0,0.532-0.11,0.721-0.307l6.059-6.298c1.62-1.686,1.62-4.427,0-6.11C37.982,26.456,36.92,26,35.787,26  s-2.196,0.456-2.993,1.285L32,28.11l-0.794-0.825C30.409,26.456,29.346,26,28.213,26c-1.133,0-2.195,0.456-2.993,1.285  c-1.62,1.684-1.62,4.425,0,6.11l6.059,6.298C31.468,39.89,31.728,40,32,40z M26.662,28.672C27.078,28.238,27.629,28,28.213,28  c0.584,0,1.135,0.238,1.552,0.672l1.515,1.574c0.377,0.393,1.064,0.393,1.441,0l1.515-1.574c0.833-0.866,2.271-0.867,3.103,0  c0.885,0.92,0.885,2.417,0,3.337L32,37.558l-5.338-5.549C25.777,31.089,25.777,29.592,26.662,28.672z"></path><rect x="31" y="42" width="2" height="2"></rect><rect x="35" y="42" width="2" height="2"></rect><rect x="27" y="42" width="2" height="2"></rect></svg>