<svg height='300px' width='300px'  fill="#000000" xmlns="http://www.w3.org/2000/svg" xmlns:xlink="http://www.w3.org/1999/xlink" version="1.1" x="0px" y="0px" viewBox="0 0 100 100" style="enable-background:new 0 0 100 100;" xml:space="preserve"><g><path d="M70.890152,39.9195061h-0.4202194v-7.7639656c0-3.5475864-2.8870697-6.43466-6.4346542-6.43466h-13.464138   c-0.0017738-0.5830517-0.4148903-1.0691147-0.9641342-1.183712V23.76894   c0.5504265-0.1148205,0.9647255-0.6025105,0.9647255-1.1872635v-3.451704l7.3899155-7.0407209   c0.3586655-0.340909,0.473484-0.8676605,0.2900085-1.3269405C58.0669975,10.3018465,57.6219215,10,57.125946,10H31.4500465   c-0.4959755,0-0.9410496,0.3018465-1.1257095,0.762311c-0.1834755,0.45928-0.068655,0.9860315,0.2900105,1.3269405   l7.388731,7.0407209v3.451704c0,0.584753,0.414299,1.0736275,0.9659081,1.1872635v0.7682285   c-0.551609,0.113636-0.9659081,0.6025105-0.9659081,1.1872635v3.293457   C32.4073753,32.4302368,26.837122,39.7671776,26.837122,46.714016c0,8.4434166,6.6867886,13.688446,17.450285,13.688446   c10.7646751,0,17.4514656-5.2450294,17.4514656-13.688446c0-6.9463921-5.5706978-14.2840042-11.167141-17.69561v-0.8732834   h13.4635468c2.211174,0,4.0104141,1.7992439,4.0104141,4.0104179v7.7639656h-0.4190369   c-2.1081924,0-3.8233871,1.7151985-3.8233871,3.823391v37.7012329c0,2.1081924,1.7151947,3.8233871,3.8233871,3.8233871h0.0256729   c-0.6504517,1.3617172-2.0431595,2.3082428-3.6170502,2.3082428h-6.7850418v-6.5400085   c0-0.6699829-0.542141-1.2121277-1.2121201-1.2121277h-1.1780891c0.8939247-1.113205,1.4520454-2.5139771,1.4515266-4.0672302   c0-0.0082855-0.0224915-0.3965454-0.0106544-0.5504303c0.1645355-1.1742401,1.2559204-4.5703125,1.6619301-5.7800598   c0.1242905-0.3693237,0.0627403-0.7765198-0.1657181-1.09375c-0.227272-0.3160553-0.5930405-0.5042648-0.9836655-0.5042648   h-22.440815c-0.390625,0-0.7563896,0.1882095-0.9836617,0.5042648c-0.2284584,0.3172302-0.2900124,0.7244263-0.1657219,1.09375   c0.407196,1.2097473,1.4985809,4.6058197,1.6607475,5.7575684c0.0142059,0.1763763-0.0082855,0.5646362-0.0094681,0.6297379   c0,1.523735,0.5547905,2.9068298,1.4435349,4.0104141h-1.1700974c-0.6699829,0-1.2121201,0.5421448-1.2121201,1.2121277v6.5400085   H26.498579c-0.669981,0-1.2121201,0.5421371-1.2121201,1.2121201S25.828598,90,26.498579,90h8.6493855h20.890152h7.9971619   c2.906601,0,5.4358978-2.0069809,6.1959915-4.7324829h0.6588821c2.1081924,0,3.8233871-1.7151947,3.8233871-3.8233871V43.742897   C74.7135391,41.6347046,72.9983444,39.9195061,70.890152,39.9195061z M48.1474915,26.9116955v1.5707855h-7.7201729v-1.5707855   c0.5516129-0.113636,0.9659119-0.6025105,0.9659119-1.1872635v-3.1427555c0-0.5847549-0.414299-1.0736275-0.9659119-1.1872635   v-1.5707855h7.7201729v1.5707855c-0.5504265,0.1148205-0.9647255,0.6025085-0.9647255,1.1872635v3.1427555   C47.182766,26.309185,47.597065,26.796875,48.1474915,26.9116955z M45.1858444,36.089016h2.1863136v2.410038h-2.1863136   c-0.6699829,0-1.2121239,0.542141-1.2121239,1.2121201c0,0.6699829,0.542141,1.2121201,1.2121239,1.2121201h2.1863136v2.4112244   h-2.1863136c-0.6699829,0-1.2121239,0.5421371-1.2121239,1.2121201c0,0.6699791,0.542141,1.2121201,1.2121239,1.2121201h2.1863136   v0.0532684c0,1.491478-1.2133026,2.7047806-2.7047806,2.7047806h-0.7599449c-1.491478,0-2.7047806-1.2133026-2.7047806-2.7047806   V30.906723h6.1695061v2.758049h-2.1863136c-0.6699829,0-1.2121239,0.542141-1.2121239,1.2121201   C43.9737206,35.546875,44.5158615,36.089016,45.1858444,36.089016z M36.0428505,70.2521286H55.144413   c-0.46875,1.4796448-1.098484,3.577179-1.2440834,4.616478c-0.035511,0.2521286-0.0248566,0.6841888-0.011837,0.944603   c0,2.211174-1.7992401,4.0104141-4.0104141,4.0104141H41.309185c-2.211174,0-4.0104179-1.7992401-4.0116005-3.953598   c0.0142059-0.3172302,0.0248604-0.7492905-0.0106544-1.0002365C37.1413345,73.8293076,36.5116005,71.7317734,36.0428505,70.2521286   z"></path><path d="M40.8333321,77.4881592c0.6699829,0,1.2121239-0.5421371,1.2121239-1.2121201v-2.4751358   c0-0.6699829-0.542141-1.2121277-1.2121239-1.2121277c-0.6699791,0-1.2121201,0.5421448-1.2121201,1.2121277v2.4751358   C39.621212,76.946022,40.163353,77.4881592,40.8333321,77.4881592z"></path><path d="M45.5930405,77.4881592c0.6699791,0,1.2121201-0.5421371,1.2121201-1.2121201v-2.4751358   c0-0.6699829-0.542141-1.2121277-1.2121201-1.2121277c-0.6699829,0-1.2121201,0.5421448-1.2121201,1.2121277v2.4751358   C44.3809204,76.946022,44.9230576,77.4881592,45.5930405,77.4881592z"></path><path d="M50.3527451,77.4881592c0.6699829,0,1.2121239-0.5421371,1.2121239-1.2121201v-2.4751358   c0-0.6699829-0.542141-1.2121277-1.2121239-1.2121277c-0.6699791,0-1.2121201,0.5421448-1.2121201,1.2121277v2.4751358   C49.140625,76.946022,49.682766,77.4881592,50.3527451,77.4881592z"></path></g></svg>