<svg height='300px' width='300px'  fill="#000000" xmlns="http://www.w3.org/2000/svg" data-name="Слой 1" viewBox="0 0 100 100" x="0px" y="0px"><title>сфлу</title><path d="M21.26748,9.70592c1.01737-1.48044,2.77005-1.62525,4.534-1.6061,3.28959.03581,3.86791-.90252,5.04906,3.30658.28595,1.019.95124,1.13874,1.69514,1.30476,4.978,1.11083,9.96881,2.16459,14.93882,3.30953,8.50936,1.96035,17.05918,3.779,25.48387,6.057,3.58081.96826,7.17063,2.00893,10.761,2.93954,4.49375,1.16478,6.06664,4.24963,5.76641,7.98224a47.384,47.384,0,0,0,1.0005,11.97925,60.87579,60.87579,0,0,1,.86469,13.50083,4.5004,4.5004,0,0,1-1.77172,3.81408c-1.21548.90966-1.95678,2.43214-2.984,3.61766-5.07538,5.85764-9.80431,11.98386-14.468,18.17271a75.4068,75.4068,0,0,1-7.34523,8.064c-2.29883,2.2727-4.43944,2.47928-7.09159.47836-5.86933-4.42816-12.17771-8.24915-17.68883-13.18347-4.02361-3.60252-8.62107-6.51461-12.91556-9.791A147.75608,147.75608,0,0,0,10.7422,58.68442a2.3036,2.3036,0,0,1-1.21194-3.12289,20.53233,20.53233,0,0,0,.419-9.28084c-.50317-3.16134-.13688-6.46287-.13148-9.70284.00844-5.00038.34271-10.00956-.52177-14.98293a6.39547,6.39547,0,0,1-.021-2.35069,7.9725,7.9725,0,0,0-.42484-4.51337,5.8,5.8,0,0,1,3.02852-6.90235C12.93445,7.31892,14.03,6.889,15.11862,6.4508,17.781,5.3792,19.62939,6.226,20.48074,8.90646,20.57125,9.19136,20.63241,9.46213,21.26748,9.70592ZM82.80065,28.54678c-1.42455.92314-1.2,2.36738-.997,3.67513a1.83784,1.83784,0,0,0,2.14537,1.55,2.918,2.918,0,0,0,2.83828-2.08862c.41864-1.11876.50872-2.21247-.32994-2.99412a2.738,2.738,0,0,0-3.7399-.08218ZM37.10483,19.88049A3.65783,3.65783,0,0,0,35.895,23.56406a1.91288,1.91288,0,0,0,1.66975,1.76333,3.24655,3.24655,0,0,0,3.35039-1.82008c.64041-1.2523.57861-3.31451-.27852-3.79843-1.19312-.67369-2.50826-1.18187-3.60749.26287Zm-1.9275,53.37936c.27044.79589.64524,1.4442,1.96651,1.11317-.78681-.4437-1.06583-1.2736-2.02565-1.05058-.01745-.78774-.63673-1.20862-1.122-1.64-6.53174-5.80658-13.5365-11.017-20.53714-16.23208a1.33549,1.33549,0,0,0-1.11105-.35522c-.89138,1.5289.11466,2.33742,1.25442,2.99074,5.906,3.38525,11.105,7.7374,16.47292,11.86843C31.66763,71.17971,33.02626,72.86248,35.17733,73.25985ZM66.1638,51.72773l-.06015-.06058C65.19273,52.6785,63.5188,53.09631,63.7953,55.02c.145,1.00857.48391,1.40374,1.39642.93638a2.31762,2.31762,0,0,0,.93523-.69082A8.66828,8.66828,0,0,1,70.51,51.87041c-3.45965-2.76039-3.86142-5.47679-1.33736-8.24363a4.179,4.179,0,0,1,3.60172-1.62948c1.53835.13039,1.759,1.28663,2.17927,2.38343.50259,1.31147,1.32589,1.14784,2.28787.43574,2.88674-2.137,4.6051-5.14562,6.70143-8.27421a5.64679,5.64679,0,0,1-4.37764-3.99978c-.80945-2.21623.94265-3.83813,1.45282-5.80994a7.77586,7.77586,0,0,0-3.60735-.65285c-1.30454.236-.56735,1.75669-1.31825,2.39681-.14784.126-.23726.32608-.393.43631-.55661.39391-1.14213.93851-1.8354.34692a1.7264,1.7264,0,0,1-.46819-1.84117c.1839-.928,1.45613-1.13243,1.23668-2.395-1.92707-.689-3.85731-1.63571-6.07826-1.59122l.07861.07382a3.38033,3.38033,0,0,0-2.05962-.96667c-1.215-.29908-2.44019-1.02354-3.70723-.56047-1.01175.36968-.92643,1.65284-1.51968,2.40622-.34645.44-.68173,1.04716-1.38344.827-.58776-.1844-.47208-.76532-.49264-1.24036-.13514-3.11608-.13594-3.115-3.07691-3.87977-.37855-.09841-.75212-.21549-1.12872-.32143-.97374-.2738-1.56251.06977-1.5478,1.104a15.56,15.56,0,0,1-.66385,3.59783c2.13023.79654,4.71018.90749,5.14779,3.45283.594,3.45521-.99754,6.03127-4.19576,7.48643,1.95858,3.63865,2.05248,5.24176.56281,8.32863l.07529-.076c-3.27885,2.70072-5.28791,2.76169-8.5545.15167A1.749,1.749,0,0,0,44.31339,43.51c-1.67386.35219-2.20213-.702-1.44467-2.60873.64661.43429-.45492,1.51462.5212,1.6726,1.08336.17535,1.10261-.82359,1.28392-1.54863.047-.18758-.018-.4123.05509-.58275,1.06569-2.48483,1.84781-5.26812,5.80162-5.0571-.95038-1.07124-1.60326-1.80721-2.21439-2.49615-.72782.43307-.62238,1.00413-.84191,1.42231-1.63614,3.11658-4.46685,3.75112-7.27866,1.63488A4.3991,4.3991,0,0,1,38.7021,30.017c1.20949-2.46016,2.83135-3.1821,5.53456-2.427.65584.18322,1.29178.44331,1.92793.69086,1.89656.73791,1.89483.74231,2.75945-1.61206-2.54548.28282-4.01077-1.23267-5.16084-3.11157-.51665.18037-.662.55091-.87883.87779-2.02378,3.04933-3.84324,3.65455-7.21628,2.44459a8.952,8.952,0,0,0-1.12245-.25051,20.319,20.319,0,0,1-.60341-4.31637A4.93628,4.93628,0,0,1,38.5927,17.546c2.25758-.0684,4.328.285,4.94787,2.94343.99329-.36831,1.18815-1.18926,1.51931-1.8547.38158-.76683.10876-1.35719-.81594-1.426-4.11419-.30592-8.08465-1.48715-12.16747-1.98036-.58452-.07061-1.26806-.27041-1.674.22454-1.144,1.3944-3.02319,1.54671-4.45134,2.53617,3.13454,3.01364,3.36373,4.13771,1.80915,8.14509a8.0219,8.0219,0,0,0-.26446,1.13424c-1.70436,1.497-3.81411,1.46894-6.46639,1.31634,3.11312,2.93174,6.17886,5.01848,8.77987,7.64632,4.20686,4.25031,9.47415,7.28966,13.59765,11.65089a2.91911,2.91911,0,0,0,2.32126.7986c.62527.01381,1.70992-.15289.96343,1.12659a.57612.57612,0,0,0,.154.787c2.5845,1.88625,4.58289,4.51272,7.70135,6.22646-.127-1.59662-.56771-2.88267-.10111-4.2607.81263-2.39941,1.89923-3.22887,4.35867-2.71362a10.93546,10.93546,0,0,1,3.89467,1.21753C63.86958,51.86288,64.97977,51.69473,66.1638,51.72773ZM64.57143,89.31849c2.42894-2.62369,4.82867-4.94085,6.90827-7.51644q7.75143-9.59991,15.23191-19.41682c1.45052-1.90557,2.95526-3.89434,2.76768-6.62192a82.07012,82.07012,0,0,0-1.236-11.00608c-.24816-1.20322-.58747-2.38765-.90025-3.6415-1.571.42124-1.40832,2.06146-2.40377,2.65157a7.01318,7.01318,0,0,0-3.10014,4.48279c-.89181,3.24113-4.87871,3.47739-6.14172,6.43019A3.90447,3.90447,0,0,1,73.08108,56.487a4.41031,4.41031,0,0,0-3.05485,2.50473,4.2645,4.2645,0,0,1-3.69064,2.52969,3.2956,3.2956,0,0,0-2.455,1.43839,8.18313,8.18313,0,0,0-1.50662,8.242c.61777,1.76087,1.40926,3.42475.56577,5.37179a3.35467,3.35467,0,0,0,.178,2.59387,5.05261,5.05261,0,0,1,.52538,2.86367A12.08637,12.08637,0,0,0,64.57143,89.31849Zm-52.562-58.35212a26.43331,26.43331,0,0,1-.01579,2.8142c-.27333,2.40611.77743,3.88961,2.6706,5.40946a77.6523,77.6523,0,0,0,9.67335,7.15008c2.39634,1.37273,3.61008,4.505,6.84754,4.5098a.55424.55424,0,0,1,.38821.37238c.20186,2.331,2.31672,3.05571,3.717,4.31107,5.48378,4.916,11.344,9.3799,17.12984,13.92976,1.409,1.108,2.94819,2.05046,4.50753,3.12415.99184-3.945.55863-4.84056-2.26617-7.08971C49.13571,61.09785,43.56726,56.73121,38.313,52.02024c-2.3804-2.13426-4.87461-4.14452-7.34018-6.13372C25.39956,41.39011,19.87834,36.83167,14.35424,32.276A3.94,3.94,0,0,0,12.00939,30.96637Zm.22054,9.32534c-.49084,3.08312-.063,5.5452,2.50819,7.26132.5662.37783,1.00381.94287,1.54758,1.36061,5.03414,3.86716,9.497,8.5108,15.32921,11.29424,1.3406,2.45053,3.88053,3.54366,5.99965,5.02122,3.71516,2.59034,6.76467,6.18463,11.23686,7.64722.41389.13533.22789.46062.37559.64712a22.702,22.702,0,0,0,7.83542,5.84081c.66925-2.0148.66593-3.43989-1.16522-4.56973a27.58782,27.58782,0,0,1-3.38688-2.81463c-1.53554-1.33342-3.49758-2.15863-4.848-3.527a53.94144,53.94144,0,0,0-6.285-5.22117c-.3854-.288-.72594-.7187-1.2793-.58228-.26511.0653-.8321,1.10906-.6464-.02315.19335-1.17906-.40884-1.576-1.057-2.13567-2.30634-1.99176-4.65414-3.938-6.90942-5.986-5.67807-5.15608-12.19863-9.20057-18.22633-13.894A3.8491,3.8491,0,0,0,12.22993,40.29171Zm.4705,8.23672-.56051.27477c.34192,1.18118-.417,2.495.70258,3.59382,1.401,1.375,2.84765,2.71975,4.10417,4.22028.87234,1.04171,2.76392.27884,2.824.873a3.48723,3.48723,0,0,0,1.90067,2.70017,86.527,86.527,0,0,1,8.84838,7.287A103.85992,103.85992,0,0,0,43.02789,77.646c2.79457,1.82481,5.513,3.74077,8.20314,5.71417,1.91625,1.40558,4.05671,2.50556,6.40921,3.931,0-1.27227-.00166-2.04668.00028-2.82108a2.88367,2.88367,0,0,0-1.59763-2.81069A42.16468,42.16468,0,0,1,50.736,77.60323c-5.07553-4.32287-10.55354-8.158-15.80035-12.284-6.085-4.78514-12.49972-9.14508-18.4667-14.09313C15.28276,50.24238,13.96011,49.42338,12.70043,48.52843Zm43.46528,15.2481c.85438-1.64721.27535-2.72927-1.02076-3.79153q-5.92313-4.85468-11.72712-9.854c-2.67465-2.29563-5.11909-4.886-7.93371-6.98641-6.1436-4.58451-11.51164-10.0882-17.66439-14.642-1.91344-1.41614-3.41984-3.47771-6.06319-4.17877-.01788,1.64216-.31436,3.06538,1.05351,4.22424,3.74155,3.17,7.28782,6.58576,11.16128,9.58107,6.443,4.98228,12.58958,10.31628,18.90114,15.45282,3.34657,2.72357,6.6247,5.53156,9.97754,8.24731A7.64216,7.64216,0,0,0,56.16571,63.77653ZM81.39644,44.01776c-3.35457,2.176-5.94881,4.34306-7.63514,7.47339-.65837,1.22211-1.92519,1.78449-3.1437,2.48468-3.0749,1.76682-5.95357,3.8766-8.89245,5.87607a3.91725,3.91725,0,0,0-.73885.90923c-.45882.595-.7126,1.215-.02221,1.80451.72507.61906,1.273.16042,1.75167-.38176.84133-.95265,1.5791-1.98855,3.01706-2.15734a5.056,5.056,0,0,0,4.0335-3.074c.3595-.729.71108-1.46317,1.55428-1.64473,2.20826-.47547,3.53228-1.9725,4.63078-3.7897.24614-.40725.578-.96883.96112-1.05472C80.1643,49.73424,80.55922,47.05163,81.39644,44.01776Zm-22.317,19.868a1.53778,1.53778,0,0,0-.3145,1.421,50.70581,50.70581,0,0,1,.59937,9.68452,86.19225,86.19225,0,0,0,.74736,14.70758c.09556.611-.31263,1.5778.68808,1.67516,1.02069.09931,1.13947-.92037,1.42015-1.62a2.5154,2.5154,0,0,0-.15123-2.27648,5.32216,5.32216,0,0,1-.43776-4.27227,3.3129,3.3129,0,0,0,.10407-1.75207c-.71239-2.275-1.30693-4.51553-.2928-6.86886a1.50166,1.50166,0,0,0-.15614-1.14523,10.41791,10.41791,0,0,1-.8577-7.12794C60.59881,65.2736,60.59455,64.08213,59.07942,63.88572ZM14.95275,16.97453a2.13923,2.13923,0,0,0,1.87759-.95881A20.37836,20.37836,0,0,0,18.56687,11.692c.34783-1.317-1.43306-.61015-1.51578-1.66041-.14834-1.88415-1.31276-1.53972-2.50855-.98253-.43819.20416-.90249.35154-1.35142.53327a3.348,3.348,0,0,0-2.35091,4.02751C11.32319,16.0795,12.45984,17.04134,14.95275,16.97453Zm35.0923,26.666A3.36675,3.36675,0,0,0,53.5797,40.4979c.07089-2.35131-1.00821-3.70356-3.0348-3.80286-1.82228-.08928-3.57187,1.76375-3.63728,3.85229A3.07109,3.07109,0,0,0,50.04505,43.64055ZM26.43633,22.86416c-.029-1.83137-1.21822-3.31037-2.643-3.28689-2.19909.03624-3.99,1.70007-3.8726,3.59761a3.379,3.379,0,0,0,3.34715,3.41594C25.44917,26.49628,26.47469,25.2901,26.43633,22.86416ZM42.67883,29.069a2.50176,2.50176,0,0,0-2.69209,2.72682,3.48428,3.48428,0,0,0,2.941,3.45085,3.67549,3.67549,0,0,0,3.42078-3.39878C46.42522,30.04366,45.1382,29.06905,42.67883,29.069ZM58.49145,51.3926a2.297,2.297,0,0,0-2.55955,2.48515,3.9402,3.9402,0,0,0,2.981,3.49062c1.62843.19818,2.97336-1.28442,3.16238-3.48611C62.19918,52.43824,60.90437,51.53871,58.49145,51.3926ZM51.95466,30.66766a1.24405,1.24405,0,0,1,.00354-1.31933c.24253-.44479.46343-.9552-.23828-1.14805a1.30693,1.30693,0,0,0-1.34342.42525c-.83087.98441-.03988,3.92495,1.16478,4.42336,1.30974.54186,3.53436-.47079,4.22872-1.925.95621-2.00265.5998-3.1172-1.31356-4.10763C54.59058,29.66857,54.59058,29.66857,51.95466,30.66766Zm-3.45532-6.41692c2.18951-.054,3.25988-1.06068,3.15315-2.96568a3.74867,3.74867,0,0,0-3.25534-2.88941c-1.25428-.05207-2.57015,1.95234-2.50048,3.80866C45.95141,23.66045,46.75675,24.29365,48.49934,24.25074ZM26.7165,13.3727c-2.16116-.16508-2.24813-2.0589-3.118-3.09315a2.4366,2.4366,0,0,0-.94273,2.22362,2.50875,2.50875,0,0,0,1.62208,2.79039,4.57115,4.57115,0,0,0,4.04107-1.13615,4.65166,4.65166,0,0,0,.08221-3.62956,1.24474,1.24474,0,0,0-1.28464-.47936c-.75983.07817-.49112.67473-.49184,1.098C26.62354,11.80882,26.67605,12.47126,26.7165,13.3727ZM42.56929,79.61983q6.50328,4.78105,13.00887,9.559a5.69239,5.69239,0,0,0,.76092.44745.66544.66544,0,0,0,.98189-.291.87026.87026,0,0,0-.15426-.78435,6.58884,6.58884,0,0,0-1.18331-.85554,72.47278,72.47278,0,0,1-8.48628-5.78632C46.11627,80.73193,44.62278,79.60249,42.56929,79.61983ZM15.86439,19.72529c-1.05869-.14467-1.92389-.25678-2.78693-.38309-.519-.07594-1.15043-.6831-1.50489.11225-.361.80989.303,1.21948.9,1.58714a19.6292,19.6292,0,0,1,4.16359,3.638c.4723.51932.93955,1.15133,1.739,1.20084.09751-.24271.181-.34411.16046-.41544-.26777-.92711-.55033-1.84993-.82986-2.77362C14.79733,22.84959,14.788,22.83628,15.86439,19.72529Zm4.5001-5.45324a21.27233,21.27233,0,0,1-3.43881,5.12615c.79655.17085,1.34356,1.06046,1.74778.5958,1.12129-1.28878,2.9197-1.37233,4.173-2.49766A30.38294,30.38294,0,0,1,20.36449,14.27205Zm61.7064,28.49612c4.79614-4.22673,4.79614-4.22673,4.61469-5.4642C84.27575,38.44387,83.41329,40.80422,82.07089,42.76817Zm-9.03431,2.09118c-.17777,1.57286-.464,2.68989-1.75752,3.16248a.796.796,0,0,0-.54946.91432c.13825.56043.62656.687,1.13716.713a1.63414,1.63414,0,0,0,1.5131-.68945C74.3104,47.70657,74.42183,46.4877,73.03658,44.85935Zm-3.17911,2.96138c.77282-.96681,1.53857-1.93943,2.322-2.89752.30751-.37606.26208-.74177-.10378-.95953a.88529.88529,0,0,0-.77772.1C70.1153,44.912,69.87435,46.2465,69.85747,47.82073Zm-10.54626,11.844c-.35518.00065-.62151.13771-.64048.41742-.02647.39333.17705.70347.63551.65047a.52755.52755,0,0,0,.45658-.58211A.48828.48828,0,0,0,59.31121,59.66476Z"></path><path d="M68.5543,23.4323a.86674.86674,0,0,0,.15275.25043c3.662,2.88639,3.77026,3.58763,1.12208,7.395.43458.56656,1.101.07277,1.56532.31411,2.50769,1.30336,3.96123-.04413,5.19222-1.99832.19883.59134-.21636,1.26319.2302,1.83974.76741-1.21963.76741-1.21963-.31141-1.74858,1.0843-1.05469,1.93089-1.05891,2.18835.01078a2.69222,2.69222,0,0,1-.0349,1.1452c-.3078,1.45347-1.97979,1.93666-2.43738,3.10537-.41806,1.06778.49848,2.3954-.20575,3.68314a6.22868,6.22868,0,0,1-5.43568,3.38407A4.01934,4.01934,0,0,1,66.796,35.48255a15.85476,15.85476,0,0,1,1.56446-3.12087.86414.86414,0,0,0-1.27577-.23471c-.844,1.13153-1.47136,1.02512-2.306-.01677-.59714-.74545-1.46587-1.268-2.10361-1.98743a2.97539,2.97539,0,0,1-.07154-4.24227c1.54347-2.00189,3.80033-2.16005,6.0365-2.36778Zm-.50879,3.34848q.25238,1.315.50468,2.63c-1.16846-.72378-3.22974-.01925-3.44854-2.36057-.05676-.60763-.972-.3167-1.28421.29316-.39319.7681.08575,1.236.60954,1.74472,1.3088,1.27112,2.72239.597,4.123.3052-.06548-.5217.26749-.90028.45117-1.34085.435-1.04366.04392-1.44752-1.048-1.19622.17063-.44526.46762-1.04391-.16421-1.21862-.84061-.23244-1.36166.26063-1.62338,1.02815C66.90626,27.16485,67.46957,26.52512,68.04551,26.78078Zm6.3748,8.717c.076-.89351-1.41-2.44423-2.46636-2.57382-1.56987-.19259-3.45612,1.71439-3.56487,3.6041a2.43078,2.43078,0,0,0,2.28693,2.2115C72.10994,38.77179,74.30334,36.87277,74.42031,35.49777Z"></path><path d="M54.56786,43.74043a8.43884,8.43884,0,0,1,1.12.3368c1.16824.52909,1.89237.36931,1.86836-1.10384a2.41226,2.41226,0,0,1,.09108-.578c.97612-4.15184,4.417-5.32034,7.67546-2.58414,1.79177,1.50453,2.42014,4.52948-.05,6.2711-2.40413,1.695-4.60986,1.914-6.78992.05816-.73791-.62818-1.19211-.37389-1.906-.23918-.26114.04926-.39708-1.17264-1.3887-1.08516-.6301.05553-.27384-.792-.54406-1.15122Zm6.85562,1.78024c1.88394.06646,3.6755-1.17794,3.684-2.55879a3.31768,3.31768,0,0,0-3.33871-3.02333c-1.23055-.037-2.479,1.66149-2.46983,3.36027A2.02578,2.02578,0,0,0,61.42348,45.52067Z"></path><path d="M27.42442,27.174c2.261-1.70783,4.62341-2.15132,7.1482-.57392,1.595,1.98837,1.45563,4.05488.384,6.23436a4.04217,4.04217,0,0,1-3.76349,2.31625c-1.51073.05182-2.4355-.9437-3.12062-2.24428C27.10075,31.06179,27.58877,29.08881,27.42442,27.174Zm1.92007,2.54962c.05344,2.03723.69219,3.04671,1.83771,3.07458,1.30462.0318,2.79674-1.81071,2.69166-3.32353-.04925-.70805-2.2666-2.33435-3.127-2.13812C29.40478,27.64252,29.27316,28.74788,29.34449,29.72363Z"></path><path d="M78.96635,36.58282c.93984.03657,1.25449.37458,1.23516.92286a6.90567,6.90567,0,0,1-1.44142,3.70391c-.46631.66219-1.20733.44923-1.67848-.23485a1.91379,1.91379,0,0,1-.32258-2.166A17.47934,17.47934,0,0,1,78.96635,36.58282Z"></path><path d="M56.81571,23.89693c-.5212-.15116-1.32777-.19837-1.27606-.86156.06159-.79009.34264-1.67978,1.45938-1.7264.7271-.03033,1.3678.11719,1.52054.9305C58.63994,22.88053,57.59841,23.848,56.81571,23.89693Z"></path><path d="M56.53964,37.36235c.73813-1.10662,3.23789-.93152,1.69608-3.01256-.05207-.07028.09671-.41972.21512-.462a.88017.88017,0,0,1,1.03072.284c.86851,1.10611.04262,2.0127-.45774,2.87253C58.47378,37.98967,57.64889,38.2891,56.53964,37.36235Z"></path><path d="M37.34022,36.5067a1.34478,1.34478,0,0,1-2.12186,1.06363c-.41735-.2338-.81255-.65807-.12123-1.06035.63226-.36794,1.45888-.45636.90573-1.62673-.1826-.38641.55538-.14377.78248.03721C37.28779,35.3209,37.19519,35.97415,37.34022,36.5067Z"></path><path d="M38.5883,42.58784c1.84153-2.17216,1.84153-2.17216.17488-4.14625,1.128.36027,2.22989.37343,2.249,1.6792C41.03043,41.37208,40.49611,42.30734,38.5883,42.58784Z"></path><path d="M51.13172,48.48011c.22674-.832.88756-.66064,1.38813-.4766.51738.19025.54233.741.42543,1.24209a2.54245,2.54245,0,0,1-1.04709,1.688c-.79741.44832-.49069-.49347-.72774-.77476l-.10911.13212c.77317.0344.93219-.5807,1.00669-1.10539.0996-.70078-.6368-.51976-.99155-.748Z"></path><path d="M66.1638,51.72773c-.55942-1.15194-.11358-2.3301-.445-4.02513,1.89173,1.66175.41266,2.80251.37321,3.95225C66.10365,51.66715,66.1638,51.72773,66.1638,51.72773Z"></path><path d="M64.09343,35.60779c.04558.66492,1.34025-.17879,1.05928.84861a.82434.82434,0,0,1-.58719.50609.96226.96226,0,0,1-.98658-1.1099C63.58443,35.53877,63.75585,35.36655,64.09343,35.60779Z"></path><path d="M51.17045,50.15884l-.96516.3409a1.97588,1.97588,0,0,1,.09917-.76939c.25991-.42424.083-1.15169.82719-1.25028l-.05517-.04248L51.06134,50.291Z"></path><path d="M30.99354,19.53814c-.71411-.01608-1.14314-.1888-1.36592-.69832a.90844.90844,0,0,1,.28112-1.04495,6.33864,6.33864,0,0,1,1.357-1.08664,1.48564,1.48564,0,0,1,2.06611.49372c.55243.89437-.19868,1.39476-.89938,1.77119C31.92386,19.24635,31.42921,19.59912,30.99354,19.53814Z"></path><path d="M30.81815,20.29946c2.224,1.07268,2.59423,2.29083,1.0592,3.3744a1.03418,1.03418,0,0,1-1.32164.05665.95862.95862,0,0,1-.45889-.99241C30.30315,21.91819,30.57316,21.11432,30.81815,20.29946Z"></path><path d="M12.80615,14.53185c-.296-1.21288-.41518-2.28852.63269-3.22382.685-.61135,1.3233-.87371,1.9909-.14006a1.36668,1.36668,0,0,1-.30052,2.218C14.41027,13.78254,13.62051,14.14782,12.80615,14.53185Z"></path><path d="M48.41229,40.60478c.14886-1.33441.25292-2.21324,1.5884-1.78309.62794.20226,1.15678.52073.9366,1.20358C50.44292,41.55922,49.31276,40.22183,48.41229,40.60478Z"></path><path d="M24.221,22.27474c-.13075.87508-.54636,1.44964-1.50243,1.4429-.38172-.00267-.78934-.01644-.89066-.50227a1.96517,1.96517,0,0,1,1.47272-1.87914C23.89186,21.34762,24.07936,21.80885,24.221,22.27474Z"></path><path d="M42.744,30.32038c.50706.06822,1.038.2633,1.05595.79726.0251.74682-.6593.857-1.23069.953a.58508.58508,0,0,1-.76965-.6033C41.76834,30.80194,41.96523,30.32106,42.744,30.32038Z"></path><path d="M59.43742,53.68534c-.04637.8193-.55949.99386-1.18851.9239-.84609-.094-1.09432-.69424-.99249-1.43313a.80539.80539,0,0,1,1.02192-.71224C59.02288,52.56578,59.55144,52.8562,59.43742,53.68534Z"></path><path d="M37.0291,19.97175c.78119.51024,1.7242.04165,2.49478.35212a1.33445,1.33445,0,0,1-.11019,1.15548,1.31723,1.31723,0,0,1-1.5742.96973c-.62533-.15732-.79495-.79557-.80678-1.40626-.0075-.38349.04067-.768.068-1.15721C37.10483,19.88049,37.0291,19.97175,37.0291,19.97175Z"></path><path d="M49.12424,21.96412c-.94871-.02192-1.82278-.08026-1.77006-1.14613.04644-.94013.99-.73986,1.58566-.87.725-.15845,1.01448.30394,1.05783.98765C50.04512,21.68268,49.69614,21.99488,49.12424,21.96412Z"></path><path d="M82.7175,28.607c1.53871-.4969,2.37694,1.08851,3.84122.87382-.37241,1.19759-.43256,2.2547-1.70624,1.99309-.96083-.19743-1.98036-.47555-1.86519-1.83011.03274-.38522.12433-.77631-.1777-1.10384C82.80065,28.54678,82.7175,28.607,82.7175,28.607Z"></path><path d="M71.03581,34.345a1.13131,1.13131,0,0,1,1.1554,1.08819c.02835.45821-.36845.62758-.76.733-.61928.16681-.938-.1129-.93313-.7095C70.50149,35.024,70.32062,34.43839,71.03581,34.345Z"></path><path d="M62.842,42.21669a1.65879,1.65879,0,0,1-1.26683,1.38589c-.85907.17608-.81536-.56533-.89772-1.10045-.09441-.61326-.05157-1.18833.78774-1.15129A1.40923,1.40923,0,0,1,62.842,42.21669Z"></path><path d="M32.054,29.78807a1.01876,1.01876,0,0,1-.85049.98925.44567.44567,0,0,1-.54586-.49452,1.04091,1.04091,0,0,1,.85957-1.01758C31.91146,29.16746,31.9848,29.48381,32.054,29.78807Z"></path></svg>