<svg height='300px' width='300px'  fill="#000000" xmlns="http://www.w3.org/2000/svg" xmlns:xlink="http://www.w3.org/1999/xlink" version="1.1" x="0px" y="0px" viewBox="0 0 100 100" enable-background="new 0 0 100 100" xml:space="preserve"><g display="none"><g display="inline"><line fill="#000000" stroke="#000000" stroke-miterlimit="10" x1="0" y1="0" x2="0" y2="100"></line><line fill="#000000" stroke="#000000" stroke-miterlimit="10" x1="5" y1="0" x2="5" y2="100"></line><line fill="#000000" stroke="#000000" stroke-miterlimit="10" x1="10" y1="0" x2="10" y2="100"></line><line fill="#000000" stroke="#000000" stroke-miterlimit="10" x1="15" y1="0" x2="15" y2="100"></line><line fill="#000000" stroke="#000000" stroke-miterlimit="10" x1="20" y1="0" x2="20" y2="100"></line><line fill="#000000" stroke="#000000" stroke-miterlimit="10" x1="25" y1="0" x2="25" y2="100"></line><line fill="#000000" stroke="#000000" stroke-miterlimit="10" x1="30" y1="0" x2="30" y2="100"></line><line fill="#000000" stroke="#000000" stroke-miterlimit="10" x1="35" y1="0" x2="35" y2="100"></line><line fill="#000000" stroke="#000000" stroke-miterlimit="10" x1="40" y1="0" x2="40" y2="100"></line><line fill="#000000" stroke="#000000" stroke-miterlimit="10" x1="45" y1="0" x2="45" y2="100"></line><line fill="#000000" stroke="#000000" stroke-miterlimit="10" x1="50" y1="0" x2="50" y2="100"></line><line fill="#000000" stroke="#000000" stroke-miterlimit="10" x1="55" y1="0" x2="55" y2="100"></line><line fill="#000000" stroke="#000000" stroke-miterlimit="10" x1="60" y1="0" x2="60" y2="100"></line><line fill="#000000" stroke="#000000" stroke-miterlimit="10" x1="65" y1="0" x2="65" y2="100"></line><line fill="#000000" stroke="#000000" stroke-miterlimit="10" x1="70" y1="0" x2="70" y2="100"></line><line fill="#000000" stroke="#000000" stroke-miterlimit="10" x1="75" y1="0" x2="75" y2="100"></line><line fill="#000000" stroke="#000000" stroke-miterlimit="10" x1="80" y1="0" x2="80" y2="100"></line><line fill="#000000" stroke="#000000" stroke-miterlimit="10" x1="85" y1="0" x2="85" y2="100"></line><line fill="#000000" stroke="#000000" stroke-miterlimit="10" x1="90" y1="0" x2="90" y2="100"></line><line fill="#000000" stroke="#000000" stroke-miterlimit="10" x1="95" y1="0" x2="95" y2="100"></line><line fill="#000000" stroke="#000000" stroke-miterlimit="10" x1="100" y1="0" x2="100" y2="100"></line></g><g display="inline"><line fill="#000000" stroke="#000000" stroke-miterlimit="10" x1="100" y1="0" x2="0" y2="0"></line><line fill="#000000" stroke="#000000" stroke-miterlimit="10" x1="100" y1="5" x2="0" y2="5"></line><line fill="#000000" stroke="#000000" stroke-miterlimit="10" x1="100" y1="10" x2="0" y2="10"></line><line fill="#000000" stroke="#000000" stroke-miterlimit="10" x1="100" y1="15" x2="0" y2="15"></line><line fill="#000000" stroke="#000000" stroke-miterlimit="10" x1="100" y1="20" x2="0" y2="20"></line><line fill="#000000" stroke="#000000" stroke-miterlimit="10" x1="100" y1="25" x2="0" y2="25"></line><line fill="#000000" stroke="#000000" stroke-miterlimit="10" x1="100" y1="30" x2="0" y2="30"></line><line fill="#000000" stroke="#000000" stroke-miterlimit="10" x1="100" y1="35" x2="0" y2="35"></line><line fill="#000000" stroke="#000000" stroke-miterlimit="10" x1="100" y1="40" x2="0" y2="40"></line><line fill="#000000" stroke="#000000" stroke-miterlimit="10" x1="100" y1="45" x2="0" y2="45"></line><line fill="#000000" stroke="#000000" stroke-miterlimit="10" x1="100" y1="50" x2="0" y2="50"></line><line fill="#000000" stroke="#000000" stroke-miterlimit="10" x1="100" y1="55" x2="0" y2="55"></line><line fill="#000000" stroke="#000000" stroke-miterlimit="10" x1="100" y1="60" x2="0" y2="60"></line><line fill="#000000" stroke="#000000" stroke-miterlimit="10" x1="100" y1="65" x2="0" y2="65"></line><line fill="#000000" stroke="#000000" stroke-miterlimit="10" x1="100" y1="70" x2="0" y2="70"></line><line fill="#000000" stroke="#000000" stroke-miterlimit="10" x1="100" y1="75" x2="0" y2="75"></line><line fill="#000000" stroke="#000000" stroke-miterlimit="10" x1="100" y1="80" x2="0" y2="80"></line><line fill="#000000" stroke="#000000" stroke-miterlimit="10" x1="100" y1="85" x2="0" y2="85"></line><line fill="#000000" stroke="#000000" stroke-miterlimit="10" x1="100" y1="90" x2="0" y2="90"></line><line fill="#000000" stroke="#000000" stroke-miterlimit="10" x1="100" y1="95" x2="0" y2="95"></line><line fill="#000000" stroke="#000000" stroke-miterlimit="10" x1="100" y1="100" x2="0" y2="100"></line></g></g><g display="none"><g display="inline"><g><defs><path id="f" d="M50.595-35.521c-12.091,12.089-29.732,14.049-39.401,4.378c-9.674-9.672-7.714-27.314,4.376-39.403      c12.09-12.09,29.731-14.052,39.405-4.381C64.644-65.256,62.686-47.611,50.595-35.521z"></path></defs><clipPath id="a"><use xlink:href="#f" overflow="visible"></use></clipPath><line clip-path="url(#a)" fill="none" stroke="#000000" stroke-width="3" stroke-linecap="round" stroke-linejoin="round" stroke-miterlimit="10" x1="33.084" y1="-111.51" x2="33.084" y2="5.438"></line><line clip-path="url(#a)" fill="none" stroke="#000000" stroke-width="3" stroke-linecap="round" stroke-linejoin="round" stroke-miterlimit="10" x1="15.569" y1="-93.996" x2="15.569" y2="22.952"></line></g></g><g display="inline"><path fill="none" stroke="#000000" stroke-width="3" stroke-linecap="round" stroke-linejoin="round" stroke-miterlimit="10" d="    M26.059,13.872c2.683,4.623,7.668,7.745,13.402,7.741c5.727,0.004,10.717-3.12,13.394-7.742    c-2.677-4.629-7.667-7.745-13.399-7.742C33.729,6.129,28.738,9.248,26.059,13.872z"></path><path fill="none" stroke="#000000" stroke-width="3" stroke-linecap="round" stroke-linejoin="round" stroke-miterlimit="10" d="    M50,23.871c0-8.284,6.717-15,15-15"></path><line fill="none" stroke="#000000" stroke-width="3" stroke-linecap="round" stroke-linejoin="round" stroke-miterlimit="10" x1="53.04" y1="13.87" x2="40.016" y2="13.871"></line><path fill="none" stroke="#000000" stroke-width="3" stroke-linecap="round" stroke-linejoin="round" stroke-miterlimit="10" d="    M75,70c0,13.807-11.193,25-25,25S25,83.807,25,70s9.198-39.094,20-45c2.193-1.199,7.937-1.411,10,0C65.162,31.95,75,59.645,75,70z    "></path><path fill="none" stroke="#000000" stroke-width="2" stroke-linecap="round" stroke-linejoin="round" stroke-miterlimit="10" stroke-dasharray="5,5,10,6" d="    M30,72c0-13.807,9.198-39.094,20-45"></path><path fill="none" stroke="#000000" stroke-width="3" stroke-linecap="round" stroke-linejoin="round" stroke-miterlimit="10" d="    M61.25,68.292c0,7.593-5.036,11.915-11.25,11.915c-6.212,0-11.25-4.322-11.25-11.915c0-7.596,6.502-15.585,11.25-15.585    S61.25,60.696,61.25,68.292z"></path><g><defs><path id="e" d="M61.25,68.292c0,7.593-5.036,11.915-11.25,11.915c-6.212,0-11.25-4.322-11.25-11.915      c0-7.596,6.502-15.585,11.25-15.585S61.25,60.696,61.25,68.292z"></path></defs><clipPath id="d"><use xlink:href="#e" overflow="visible"></use></clipPath><g clip-path="url(#d)"><line fill="none" stroke="#000000" stroke-width="2" stroke-linecap="round" stroke-linejoin="round" stroke-miterlimit="10" x1="50.795" y1="4.155" x2="113.322" y2="66.662"></line><line fill="none" stroke="#000000" stroke-width="2" stroke-linecap="round" stroke-linejoin="round" stroke-miterlimit="10" x1="48.23" y1="6.719" x2="110.757" y2="69.226"></line><line fill="none" stroke="#000000" stroke-width="2" stroke-linecap="round" stroke-linejoin="round" stroke-miterlimit="10" x1="45.666" y1="9.283" x2="108.193" y2="71.79"></line><line fill="none" stroke="#000000" stroke-width="2" stroke-linecap="round" stroke-linejoin="round" stroke-miterlimit="10" x1="43.101" y1="11.847" x2="105.628" y2="74.354"></line><line fill="none" stroke="#000000" stroke-width="2" stroke-linecap="round" stroke-linejoin="round" stroke-miterlimit="10" x1="40.536" y1="14.411" x2="103.063" y2="76.918"></line><line fill="none" stroke="#000000" stroke-width="2" stroke-linecap="round" stroke-linejoin="round" stroke-miterlimit="10" x1="37.972" y1="16.975" x2="100.498" y2="79.481"></line><line fill="none" stroke="#000000" stroke-width="2" stroke-linecap="round" stroke-linejoin="round" stroke-miterlimit="10" x1="35.407" y1="19.539" x2="97.934" y2="82.046"></line><line fill="none" stroke="#000000" stroke-width="2" stroke-linecap="round" stroke-linejoin="round" stroke-miterlimit="10" x1="32.842" y1="22.103" x2="95.369" y2="84.609"></line><line fill="none" stroke="#000000" stroke-width="2" stroke-linecap="round" stroke-linejoin="round" stroke-miterlimit="10" x1="30.277" y1="24.667" x2="92.804" y2="87.173"></line><line fill="none" stroke="#000000" stroke-width="2" stroke-linecap="round" stroke-linejoin="round" stroke-miterlimit="10" x1="27.713" y1="27.23" x2="90.239" y2="89.737"></line><line fill="none" stroke="#000000" stroke-width="2" stroke-linecap="round" stroke-linejoin="round" stroke-miterlimit="10" x1="25.148" y1="29.795" x2="87.675" y2="92.301"></line><line fill="none" stroke="#000000" stroke-width="2" stroke-linecap="round" stroke-linejoin="round" stroke-miterlimit="10" x1="22.584" y1="32.358" x2="85.109" y2="94.865"></line><line fill="none" stroke="#000000" stroke-width="2" stroke-linecap="round" stroke-linejoin="round" stroke-miterlimit="10" x1="20.019" y1="34.922" x2="82.545" y2="97.428"></line><line fill="none" stroke="#000000" stroke-width="2" stroke-linecap="round" stroke-linejoin="round" stroke-miterlimit="10" x1="17.454" y1="37.486" x2="79.98" y2="99.992"></line><line fill="none" stroke="#000000" stroke-width="2" stroke-linecap="round" stroke-linejoin="round" stroke-miterlimit="10" x1="14.89" y1="40.051" x2="77.416" y2="102.557"></line><line fill="none" stroke="#000000" stroke-width="2" stroke-linecap="round" stroke-linejoin="round" stroke-miterlimit="10" x1="12.324" y1="42.614" x2="74.851" y2="105.12"></line><line fill="none" stroke="#000000" stroke-width="2" stroke-linecap="round" stroke-linejoin="round" stroke-miterlimit="10" x1="9.76" y1="45.179" x2="72.286" y2="107.684"></line><line fill="none" stroke="#000000" stroke-width="2" stroke-linecap="round" stroke-linejoin="round" stroke-miterlimit="10" x1="7.195" y1="47.742" x2="69.721" y2="110.248"></line><line fill="none" stroke="#000000" stroke-width="2" stroke-linecap="round" stroke-linejoin="round" stroke-miterlimit="10" x1="4.631" y1="50.307" x2="67.156" y2="112.812"></line><line fill="none" stroke="#000000" stroke-width="2" stroke-linecap="round" stroke-linejoin="round" stroke-miterlimit="10" x1="2.065" y1="52.87" x2="64.592" y2="115.375"></line><line fill="none" stroke="#000000" stroke-width="2" stroke-linecap="round" stroke-linejoin="round" stroke-miterlimit="10" x1="-0.499" y1="55.435" x2="62.027" y2="117.939"></line><line fill="none" stroke="#000000" stroke-width="2" stroke-linecap="round" stroke-linejoin="round" stroke-miterlimit="10" x1="-3.063" y1="57.998" x2="59.462" y2="120.503"></line><line fill="none" stroke="#000000" stroke-width="2" stroke-linecap="round" stroke-linejoin="round" stroke-miterlimit="10" x1="-5.628" y1="60.562" x2="56.897" y2="123.067"></line><line fill="none" stroke="#000000" stroke-width="2" stroke-linecap="round" stroke-linejoin="round" stroke-miterlimit="10" x1="-8.193" y1="63.126" x2="54.333" y2="125.631"></line><line fill="none" stroke="#000000" stroke-width="2" stroke-linecap="round" stroke-linejoin="round" stroke-miterlimit="10" x1="-10.758" y1="65.69" x2="51.768" y2="128.194"></line><line fill="none" stroke="#000000" stroke-width="2" stroke-linecap="round" stroke-linejoin="round" stroke-miterlimit="10" x1="-13.322" y1="68.254" x2="49.203" y2="130.759"></line></g></g><g><defs><path id="c" d="M55.305,25c-1.156-0.791-3.469-1.071-5.665-0.955C59.311,32.361,68.305,58.1,68.305,68      c0,13.807-11.193,25-25,25c-1.121,0-2.223-0.081-3.305-0.225C43.143,94.2,46.629,95,50.305,95c13.807,0,25-11.193,25-25      C75.305,59.645,65.467,31.95,55.305,25z"></path></defs><clipPath id="b"><use xlink:href="#c" overflow="visible"></use></clipPath><g clip-path="url(#b)"><line fill="none" stroke="#000000" stroke-linecap="round" stroke-linejoin="round" stroke-miterlimit="10" x1="53.127" y1="-1.525" x2="115.654" y2="60.981"></line><line fill="none" stroke="#000000" stroke-linecap="round" stroke-linejoin="round" stroke-miterlimit="10" x1="50.563" y1="1.038" x2="113.089" y2="63.545"></line><line fill="none" stroke="#000000" stroke-linecap="round" stroke-linejoin="round" stroke-miterlimit="10" x1="47.998" y1="3.603" x2="110.525" y2="66.109"></line><line fill="none" stroke="#000000" stroke-linecap="round" stroke-linejoin="round" stroke-miterlimit="10" x1="45.433" y1="6.166" x2="107.96" y2="68.673"></line><line fill="none" stroke="#000000" stroke-linecap="round" stroke-linejoin="round" stroke-miterlimit="10" x1="42.868" y1="8.73" x2="105.395" y2="71.236"></line><line fill="none" stroke="#000000" stroke-linecap="round" stroke-linejoin="round" stroke-miterlimit="10" x1="40.304" y1="11.294" x2="102.831" y2="73.801"></line><line fill="none" stroke="#000000" stroke-linecap="round" stroke-linejoin="round" stroke-miterlimit="10" x1="37.739" y1="13.858" x2="100.266" y2="76.365"></line><line fill="none" stroke="#000000" stroke-linecap="round" stroke-linejoin="round" stroke-miterlimit="10" x1="35.174" y1="16.422" x2="97.701" y2="78.929"></line><line fill="none" stroke="#000000" stroke-linecap="round" stroke-linejoin="round" stroke-miterlimit="10" x1="32.609" y1="18.986" x2="95.136" y2="81.492"></line><line fill="none" stroke="#000000" stroke-linecap="round" stroke-linejoin="round" stroke-miterlimit="10" x1="30.045" y1="21.551" x2="92.571" y2="84.057"></line><line fill="none" stroke="#000000" stroke-linecap="round" stroke-linejoin="round" stroke-miterlimit="10" x1="27.48" y1="24.114" x2="90.007" y2="86.62"></line><line fill="none" stroke="#000000" stroke-linecap="round" stroke-linejoin="round" stroke-miterlimit="10" x1="24.915" y1="26.678" x2="87.442" y2="89.184"></line><line fill="none" stroke="#000000" stroke-linecap="round" stroke-linejoin="round" stroke-miterlimit="10" x1="22.351" y1="29.242" x2="84.877" y2="91.747"></line><line fill="none" stroke="#000000" stroke-linecap="round" stroke-linejoin="round" stroke-miterlimit="10" x1="19.786" y1="31.806" x2="82.313" y2="94.312"></line><line fill="none" stroke="#000000" stroke-linecap="round" stroke-linejoin="round" stroke-miterlimit="10" x1="17.221" y1="34.369" x2="79.747" y2="96.876"></line><line fill="none" stroke="#000000" stroke-linecap="round" stroke-linejoin="round" stroke-miterlimit="10" x1="14.656" y1="36.934" x2="77.184" y2="99.439"></line><line fill="none" stroke="#000000" stroke-linecap="round" stroke-linejoin="round" stroke-miterlimit="10" x1="12.092" y1="39.498" x2="74.618" y2="102.003"></line><line fill="none" stroke="#000000" stroke-linecap="round" stroke-linejoin="round" stroke-miterlimit="10" x1="9.527" y1="42.062" x2="72.054" y2="104.567"></line><line fill="none" stroke="#000000" stroke-linecap="round" stroke-linejoin="round" stroke-miterlimit="10" x1="6.963" y1="44.626" x2="69.488" y2="107.131"></line><line fill="none" stroke="#000000" stroke-linecap="round" stroke-linejoin="round" stroke-miterlimit="10" x1="4.397" y1="47.189" x2="66.924" y2="109.695"></line><line fill="none" stroke="#000000" stroke-linecap="round" stroke-linejoin="round" stroke-miterlimit="10" x1="1.833" y1="49.754" x2="64.359" y2="112.259"></line><line fill="none" stroke="#000000" stroke-linecap="round" stroke-linejoin="round" stroke-miterlimit="10" x1="-0.731" y1="52.317" x2="61.794" y2="114.822"></line><line fill="none" stroke="#000000" stroke-linecap="round" stroke-linejoin="round" stroke-miterlimit="10" x1="-3.296" y1="54.881" x2="59.229" y2="117.387"></line><line fill="none" stroke="#000000" stroke-linecap="round" stroke-linejoin="round" stroke-miterlimit="10" x1="-5.861" y1="57.445" x2="56.665" y2="119.95"></line><line fill="none" stroke="#000000" stroke-linecap="round" stroke-linejoin="round" stroke-miterlimit="10" x1="-8.426" y1="60.009" x2="54.1" y2="122.515"></line><line fill="none" stroke="#000000" stroke-linecap="round" stroke-linejoin="round" stroke-miterlimit="10" x1="-10.99" y1="62.573" x2="51.535" y2="125.078"></line></g></g></g></g><g><path d="M55.728,23.743c-1.149-0.786-2.839-1.075-4.193-1.172c0.646-6.694,6.299-11.946,13.16-11.946   c0.812,0,1.47-0.658,1.47-1.469c0-0.812-0.658-1.47-1.47-1.47c-4.384,0-8.36,1.76-11.275,4.604C50.339,7.767,45.181,5,39.67,5   c-5.905,0-11.422,3.188-14.396,8.318c-0.264,0.455-0.264,1.018,0,1.475c2.977,5.128,8.491,8.314,14.4,8.314h0.012   c3.341,0,6.558-1.023,9.258-2.843c-0.173,0.761-0.289,1.539-0.351,2.336c-1.704,0.15-3.207,0.525-4.197,1.066   C33.16,29.812,24.04,55.519,24.04,69.04C24.04,83.354,35.686,95,50,95s25.96-11.646,25.96-25.96   C75.96,58.948,66.388,31.034,55.728,23.743z M39.687,20.169v1.47l-0.021-1.47c-4.567,0-8.854-2.322-11.389-6.114   c2.533-3.793,6.822-6.116,11.401-6.116c3.946,0,7.673,1.735,10.246,4.646l-9.705,0.001c-0.812,0-1.469,0.658-1.469,1.469   c0,0.812,0.657,1.47,1.469,1.47l9.706-0.001C47.35,18.434,43.626,20.169,39.687,20.169z M26.979,69.04   c0-13.891,9.309-37.589,18.828-42.794c0.84-0.461,2.681-0.781,4.475-0.781c2.036,0,3.313,0.379,3.787,0.704   c3.343,2.287,6.753,7.186,9.744,12.995l-8.926-8.923c0.742,1.116,1.468,2.312,2.176,3.561l8.095,8.093   c0.976,2.069,1.892,4.213,2.731,6.368l-7.185-7.182c0.358,0.805,0.708,1.614,1.046,2.43l6.977,6.976   c0.671,1.842,1.28,3.673,1.815,5.453l-6.562-6.561c0.243,0.7,0.479,1.397,0.703,2.089l6.417,6.414   c0.462,1.676,0.85,3.283,1.153,4.792l-6.053-6.051c0.166,0.628,0.321,1.245,0.464,1.85l5.905,5.903   c0.251,1.507,0.396,2.873,0.435,4.07l-5.437-5.435c0.085,0.555,0.153,1.085,0.209,1.594l5.224,5.224   c-0.038,1.118-0.155,2.216-0.349,3.288l-4.754-4.752c-0.022,0.431-0.057,0.859-0.102,1.284l4.619,4.616   c-0.223,0.957-0.502,1.892-0.84,2.799l-4.313-4.31c-0.088,0.369-0.184,0.734-0.287,1.097l4.204,4.204   c-0.356,0.835-0.766,1.642-1.215,2.423l-3.933-3.931c-0.135,0.322-0.279,0.641-0.429,0.956l3.839,3.839   c-0.467,0.735-0.973,1.443-1.519,2.12l-3.596-3.595c-0.175,0.285-0.354,0.567-0.541,0.844l3.503,3.502   c-0.566,0.645-1.164,1.262-1.799,1.839l-3.266-3.264c-0.21,0.251-0.423,0.499-0.644,0.742l3.168,3.166   c-0.665,0.557-1.361,1.074-2.086,1.554l-2.91-2.909c-0.243,0.218-0.489,0.434-0.743,0.643l2.805,2.803   c-0.769,0.462-1.567,0.877-2.392,1.248l-2.508-2.508c-0.279,0.185-0.56,0.365-0.847,0.539l2.381,2.381   c-0.89,0.352-1.804,0.656-2.743,0.896l-2.021-2.02c-0.317,0.146-0.639,0.288-0.963,0.421l1.857,1.856   c-1.051,0.214-2.127,0.353-3.225,0.416l-1.346-1.346c-0.364,0.102-0.734,0.195-1.106,0.279l1.11,1.11c-0.005,0-0.011,0-0.016,0   C37.306,92.062,26.979,81.733,26.979,69.04z M39.611,37.006c1.943-3.302,3.977-5.997,6.046-8.01   c0.389-0.379,1.009-0.367,1.386,0.02s0.368,1.008-0.02,1.385c-1.943,1.892-3.869,4.448-5.725,7.598   c-0.182,0.312-0.509,0.483-0.845,0.483c-0.168,0-0.34-0.044-0.495-0.136C39.492,38.072,39.337,37.472,39.611,37.006z    M31.704,66.229c-0.21,1.725-0.317,3.33-0.317,4.771c0,0.541-0.438,0.979-0.979,0.979c-0.541,0-0.979-0.438-0.979-0.979   c0-1.521,0.112-3.205,0.332-5.008c0.065-0.537,0.552-0.936,1.091-0.854C31.387,65.202,31.77,65.691,31.704,66.229z M39.023,42.254   c-0.688,1.404-1.354,2.89-1.98,4.414c-0.156,0.378-0.521,0.606-0.906,0.606c-0.124,0-0.251-0.023-0.373-0.073   c-0.5-0.206-0.738-0.779-0.533-1.279c0.644-1.563,1.327-3.086,2.032-4.529c0.238-0.485,0.825-0.688,1.311-0.449   C39.06,41.181,39.261,41.768,39.023,42.254z M35.014,52.122c-1.055,3.163-1.903,6.31-2.524,9.348   c-0.095,0.464-0.503,0.783-0.959,0.783c-0.064,0-0.131-0.007-0.197-0.02c-0.529-0.108-0.871-0.626-0.763-1.156   c0.636-3.115,1.506-6.337,2.586-9.575c0.171-0.513,0.721-0.791,1.238-0.619C34.907,51.054,35.185,51.608,35.014,52.122z    M62.49,67.366c0-7.82-6.653-16.736-12.49-16.736s-12.49,8.916-12.49,16.736c0,7.738,5.137,13.143,12.49,13.143   S62.49,75.104,62.49,67.366z M57.586,60.189l-6.384-6.382C53.307,54.542,55.858,56.997,57.586,60.189z M48.525,53.902l10.723,10.72   c0.178,0.837,0.278,1.689,0.293,2.546L47.079,54.71C47.572,54.367,48.058,54.095,48.525,53.902z M45.569,55.971l13.769,13.764   c-0.113,0.623-0.268,1.221-0.47,1.782L44.485,57.139C44.84,56.719,45.201,56.327,45.569,55.971z M43.296,58.72l14.667,14.663   c-0.287,0.462-0.611,0.891-0.97,1.284L42.447,60.124C42.713,59.639,42.996,59.169,43.296,58.72z M41.559,62.007L55.517,75.96   c-0.452,0.311-0.94,0.574-1.455,0.798L40.983,63.686C41.145,63.114,41.338,62.555,41.559,62.007z M41.208,71.704l5.263,5.261   C44.015,76.074,42.172,74.229,41.208,71.704z M40.482,68.207c-0.017-0.277-0.034-0.555-0.034-0.841   c0-0.457,0.029-0.913,0.079-1.368l11.402,11.4c-0.616,0.109-1.259,0.171-1.93,0.171c-0.055,0-0.106-0.007-0.161-0.008   L40.482,68.207z"></path></g></svg>