<svg height='300px' width='300px'  fill="#000000" xmlns="http://www.w3.org/2000/svg" xmlns:xlink="http://www.w3.org/1999/xlink" version="1.1" x="0px" y="0px" viewBox="0 0 100 100" style="enable-background:new 0 0 100 100;" xml:space="preserve"><path d="M44.140625,27.5888672c-0.394043-0.3730469-1.0146484-0.3632812-1.3979492,0.0234375  c-2.0336914,2.0571289-3.3203125,4.6630859-3.7211914,7.5361328c-1.0175781,7.2924805,4.0874023,14.0532227,11.3798828,15.0708008  c0.6171875,0.0864258,1.2348633,0.1289062,1.8486328,0.1289062c3.7397461,0,7.3398438-1.5727539,9.8955078-4.3896484  c0.3657227-0.4033203,0.3417969-1.0244141-0.0537109-1.3984375L44.140625,27.5888672z M44.0204468,41.3271484l7.2642212-3.6088867  l-3.2979736,7.543335C46.279541,44.3797607,44.90271,42.9963379,44.0204468,41.3271484z M49.8292236,35.7189941  l-6.5656128-1.1506348c0.335144-1.2512817,0.9210815-2.4076538,1.7363281-3.4150391L49.8292236,35.7189941z M50.7070312,36.8884888  l-7.1080933,3.5313721c-0.5772095-1.449585-0.8040161-3.0601196-0.5735474-4.7128296  c0.0075073-0.053894,0.0203247-0.1060791,0.0287476-0.159729L50.7070312,36.8884888z M52.1826782,38.15979l2.1447144,7.9070435  c-1.0888062,0.2495728-2.2279663,0.3068237-3.3679199,0.1480103c-0.7220459-0.100769-1.4088135-0.2902832-2.0614624-0.5421753  L52.1826782,38.15979z M55.2868652,45.7852173l-1.7897949-6.5985718l4.9837036,4.7116699  C57.5432129,44.7444458,56.4568481,45.3805542,55.2868652,45.7852173z M50.6777344,48.2387695  C44.4775391,47.3735352,40.137207,41.625,41.0019531,35.4248047c0.2954102-2.1171875,1.15625-4.0629883,2.5053711-5.6826172  l0.7628784,0.7212524c-1.0501099,1.2775269-1.7675781,2.7749634-2.1083374,4.4014282  c-0.0012817,0.0061035-0.0054932,0.0107422-0.0065918,0.0169678c-0.0010376,0.0058594,0.0012207,0.0112305,0.0004272,0.0170898  c-0.0456543,0.2214966-0.0889893,0.4439087-0.1205444,0.6699219c-0.2805786,2.0108643,0.0505981,3.9650269,0.8374023,5.6878662  c0.0076904,0.024231,0.0078735,0.0493774,0.0195312,0.072876c0.005249,0.0105591,0.0166626,0.0145264,0.022522,0.0245361  c1.0325317,2.2008667,2.8237305,4.0047607,5.0863037,5.0292358c0.0115356,0.0061646,0.019104,0.0166016,0.031311,0.0219116  c0.0145264,0.0064697,0.0299072,0.0045166,0.0447388,0.0093994c0.8555908,0.3791504,1.7724609,0.6548462,2.7443237,0.7904053  c0.4785156,0.0668945,0.9560547,0.0996094,1.4311523,0.0996094c0.9279785,0,1.84021-0.1386108,2.7218018-0.3806763  c0.0332642-0.0020142,0.0665283-0.0040894,0.0999756-0.0133667c0.0219727-0.0059814,0.038147-0.0206909,0.0585938-0.0292969  c1.5033569-0.4387207,2.9024048-1.2105103,4.0803223-2.2906494l0.7624512,0.7208252  C57.4819336,47.625,54.0751953,48.7104492,50.6777344,48.2387695z"></path><path d="M46.925293,65.0395508c-0.6049805-0.605957-1.5917969-0.6069336-2.1977539,0l-3.2583008,3.2578125  c-0.605957,0.605957-0.605957,1.5917969,0,2.1977539l3.2583008,3.2583008  c0.3027344,0.3032227,0.7006836,0.4545898,1.0991211,0.4545898c0.3979492,0,0.7958984-0.1513672,1.0986328-0.4545898  l3.2583008-3.2583008c0.605957-0.605957,0.605957-1.5917969,0-2.1977539L46.925293,65.0395508z M49.4765625,69.7880859  l-3.2583008,3.2583008c-0.2158203,0.2163086-0.5678711,0.215332-0.7836914,0l-3.2583008-3.2583008  c-0.2158203-0.2163086-0.2158203-0.5673828,0-0.7836914l3.2583008-3.2578125  c0.1079102-0.1079102,0.25-0.1621094,0.3916016-0.1621094c0.1420898,0,0.2841797,0.0541992,0.3920898,0.1621094l3.2583008,3.2578125  C49.6923828,69.2207031,49.6923828,69.5717773,49.4765625,69.7880859z"></path><path d="M58.5727539,60.2421875c-0.6054688-0.6064453-1.5922852-0.6054688-2.1977539,0l-3.2583008,3.2583008  c-0.605957,0.605957-0.605957,1.5917969,0,2.1977539L56.375,68.956543c0.3027344,0.3032227,0.7006836,0.4545898,1.0991211,0.4545898  c0.3979492,0,0.7958984-0.1513672,1.0986328-0.4545898l3.2583008-3.2583008c0.605957-0.605957,0.605957-1.5917969,0-2.1977539  L58.5727539,60.2421875z M61.1240234,64.9912109l-3.2583008,3.2583008c-0.2158203,0.2163086-0.5678711,0.215332-0.7836914,0  l-3.2583008-3.2583008c-0.2158203-0.2163086-0.2158203-0.5673828,0-0.7836914l3.2583008-3.2583008  c0.1079102-0.1079102,0.25-0.1621094,0.3920898-0.1621094c0.1416016,0,0.2836914,0.0541992,0.3916016,0.1621094l3.2583008,3.2583008  C61.3398438,64.4238281,61.3398438,64.7749023,61.1240234,64.9912109z"></path><path d="M40.644043,56.6103516l3.2578125,3.2578125c0.3027344,0.3032227,0.7006836,0.4545898,1.0991211,0.4545898  c0.3974609,0,0.7958984-0.1513672,1.0986328-0.4545898l3.2583008-3.2578125c0.605957-0.605957,0.605957-1.5917969,0-2.1977539  l-3.2583008-3.2583008c-0.6054688-0.6064453-1.5922852-0.6054688-2.1977539,0l-3.2578125,3.2583008  C40.0380859,55.0185547,40.0380859,56.0043945,40.644043,56.6103516z M41.3510742,55.1196289l3.2578125-3.2583008  c0.1079102-0.1079102,0.25-0.1621094,0.3916016-0.1621094c0.1420898,0,0.2841797,0.0541992,0.3920898,0.1621094l3.2583008,3.2583008  c0.2158203,0.2163086,0.2158203,0.5673828,0,0.7836914l-3.2583008,3.2578125c-0.2158203,0.215332-0.5678711,0.2163086-0.7836914,0  l-3.2578125-3.2578125C41.1352539,55.6870117,41.1352539,55.3359375,41.3510742,55.1196289z"></path><path d="M54.0366211,73.2084961c-0.7583008,0-1.375,0.6166992-1.375,1.375s0.6166992,1.375,1.375,1.375  s1.375-0.6166992,1.375-1.375S54.7949219,73.2084961,54.0366211,73.2084961z M54.0366211,74.9584961  c-0.206543,0-0.375-0.168457-0.375-0.375s0.168457-0.375,0.375-0.375s0.375,0.168457,0.375,0.375  S54.2431641,74.9584961,54.0366211,74.9584961z"></path><path d="M41.8154297,62.5483398c0-0.7583008-0.6166992-1.375-1.375-1.375s-1.375,0.6166992-1.375,1.375  s0.6166992,1.375,1.375,1.375S41.8154297,63.3066406,41.8154297,62.5483398z M40.4404297,62.9233398  c-0.206543,0-0.375-0.168457-0.375-0.375s0.168457-0.375,0.375-0.375s0.375,0.168457,0.375,0.375  S40.6469727,62.9233398,40.4404297,62.9233398z"></path><path d="M60.5239258,55.3398438c0-0.7583008-0.6166992-1.375-1.375-1.375s-1.375,0.6166992-1.375,1.375  s0.6166992,1.375,1.375,1.375S60.5239258,56.0981445,60.5239258,55.3398438z M58.7739258,55.3398438  c0-0.206543,0.168457-0.375,0.375-0.375s0.375,0.168457,0.375,0.375s-0.168457,0.375-0.375,0.375  S58.7739258,55.5463867,58.7739258,55.3398438z"></path><path d="M41.2666016,48.1308594c0-0.7583008-0.6166992-1.375-1.375-1.375s-1.375,0.6166992-1.375,1.375  s0.6166992,1.375,1.375,1.375S41.2666016,48.8891602,41.2666016,48.1308594z M39.5166016,48.1308594  c0-0.206543,0.168457-0.375,0.375-0.375s0.375,0.168457,0.375,0.375s-0.168457,0.375-0.375,0.375  S39.5166016,48.3374023,39.5166016,48.1308594z"></path><path d="M56.5991211,30.0483398c0.7583008,0,1.375-0.6166992,1.375-1.375s-0.6166992-1.375-1.375-1.375  s-1.375,0.6166992-1.375,1.375S55.8408203,30.0483398,56.5991211,30.0483398z M56.5991211,28.2983398  c0.206543,0,0.375,0.168457,0.375,0.375s-0.168457,0.375-0.375,0.375s-0.375-0.168457-0.375-0.375  S56.3925781,28.2983398,56.5991211,28.2983398z"></path><path d="M30.9639282,10.4613037c-0.0072632,0.0160522-0.0132446,0.0317993-0.0197144,0.0483398  c-0.0430908,0.1167603-0.0731201,0.2362061-0.0731201,0.3619385v75.4423828c0,0.8374023,0.4648438,1.6035156,1.1835938,1.9511719  c5.84375,2.8320312,12.1157227,4.2475586,18.3891602,4.2475586c6.2724609,0,12.5463867-1.4160156,18.3886719-4.2470703  c0.7192383-0.3481445,1.184082-1.1142578,1.184082-1.9516602V10.871582c0-0.1257324-0.0300293-0.2451782-0.0731201-0.3619385  c-0.0064697-0.0165405-0.0124512-0.0322876-0.0197144-0.0483398C68.8307495,7.87854,57.3989868,7.4775391,50.4438477,7.4775391  S32.0569458,7.87854,30.9639282,10.4613037z M68.0166016,79.6141357c-11.199585,5.2615967-23.9459229,5.2615967-35.1455078,0  V12.6360474c3.7770386,1.380249,12.0751953,1.6300659,17.5727539,1.6300659s13.7957153-0.2498169,17.5727539-1.6300659V79.6141357z   M67.9609375,86.465332c-11.1328125,5.3945312-23.9013672,5.3945312-35.0341797,0  c-0.0141602-0.0083008-0.0556641-0.0615234-0.0556641-0.1513672v-4.5072632  c5.6248169,2.4994507,11.5964355,3.765564,17.5727539,3.765564s11.947937-1.2661133,17.5727539-3.765564v4.5072632  C68.0166016,86.4038086,67.9750977,86.4570312,67.9609375,86.465332z M50.4438477,9.4775391  c8.5200195,0,14.5322266,0.7192383,16.8032227,1.394043c-2.2709961,0.675293-8.2827148,1.3945312-16.8032227,1.3945312  S35.9116211,11.546875,33.640625,10.871582C35.9116211,10.1967773,41.9238281,9.4775391,50.4438477,9.4775391z"></path><path d="M62.175293,16.1191406c0.0175781,0,0.0351562-0.0009766,0.0527344-0.0029297  c0.5415039-0.0571289,1.0581055-0.1176758,1.5463867-0.1821289c0.2739258-0.0361328,0.4663086-0.2871094,0.4301758-0.5610352  c-0.0366211-0.2734375-0.2910156-0.4658203-0.5610352-0.4301758c-0.4804688,0.0634766-0.9882812,0.1230469-1.5200195,0.1791992  c-0.2749023,0.0288086-0.4741211,0.2749023-0.4448242,0.5493164C61.7055664,15.9282227,61.9223633,16.1191406,62.175293,16.1191406z  "></path><path d="M36.8886719,14.8950195c-0.277832-0.0424805-0.5263672,0.152832-0.5639648,0.4262695  c-0.0380859,0.2734375,0.152832,0.5258789,0.4262695,0.5639648c3.527832,0.4907227,8.5185547,0.7719727,13.6928711,0.7719727  c2.8725586,0,5.6318359-0.0825195,8.2016602-0.2446289c0.2753906-0.0175781,0.4848633-0.2548828,0.4672852-0.5307617  c-0.0175781-0.2753906-0.2597656-0.4868164-0.5307617-0.4672852c-2.5483398,0.1611328-5.2866211,0.2426758-8.1381836,0.2426758  C45.3134766,15.6572266,40.3725586,15.3793945,36.8886719,14.8950195z"></path><path d="M35.8198242,21.7529297v44.2553711c0,8.1762695,6.6518555,14.828125,14.828125,14.828125  c8.1767578,0,14.8286133-6.6518555,14.8286133-14.828125V21.7529297c0-0.6494141,0-2.6254883-14.8286133-2.6254883  C35.8198242,19.1274414,35.8198242,21.1035156,35.8198242,21.7529297z M50.6479492,78.8364258  c-7.0732422,0-12.828125-5.7548828-12.828125-12.828125V23.3517456c1.8982544,0.5568848,5.5976562,1.0271606,12.828125,1.0271606  c7.2307739,0,10.9302979-0.4702759,12.8286133-1.0271606v42.6565552  C63.4765625,73.081543,57.7216797,78.8364258,50.6479492,78.8364258z M50.6479492,22.3789062  c-4.8222656,0-8.5966797-0.2885742-10.8427734-0.6259766c2.2456055-0.3369141,6.0205078-0.6254883,10.8427734-0.6254883  s8.597168,0.2885742,10.8427734,0.6254883C59.2451172,22.090332,55.4702148,22.3789062,50.6479492,22.3789062z"></path></svg>