<svg height='300px' width='300px'  fill="#000000" xmlns="http://www.w3.org/2000/svg" viewBox="0 0 64 64" x="0px" y="0px"><title>pearl, food, drink, miilk, bubble milk tea, taiwanese, sweeet</title><g data-name="bubble milk tea"><path d="M32.689,20.414a2.181,2.181,0,0,0-1.582-.537,1.828,1.828,0,0,0-1.884,1.891A1.757,1.757,0,0,0,30.289,23.6a2.089,2.089,0,0,0,2.332-.575A1.933,1.933,0,0,0,32.689,20.414Z"></path><path data-name="Path" d="M31.957,48.072a1.4,1.4,0,0,0-.833-1.231,2.131,2.131,0,0,0-1.228-.105,1.642,1.642,0,0,0-1.171,1.246,1.926,1.926,0,0,0,.527,1.654,1.586,1.586,0,0,0,1.641.266A1.836,1.836,0,0,0,31.957,48.072Z"></path><path data-name="Path" d="M26.056,49.145a1.444,1.444,0,0,0-.854-1.263,2.2,2.2,0,0,0-1.26-.107,1.685,1.685,0,0,0-1.2,1.278,1.973,1.973,0,0,0,.541,1.7,1.627,1.627,0,0,0,1.682.273A1.886,1.886,0,0,0,26.056,49.145Z"></path><path data-name="Path" d="M25.524,54.465a1.513,1.513,0,0,0-.895-1.325,2.293,2.293,0,0,0-1.322-.112,1.765,1.765,0,0,0-1.259,1.34,2.069,2.069,0,0,0,.567,1.779,1.706,1.706,0,0,0,1.764.286A1.974,1.974,0,0,0,25.524,54.465Z"></path><path data-name="Path" d="M29.293,52.171a1.469,1.469,0,0,0-.869-1.285,2.234,2.234,0,0,0-1.282-.109,1.715,1.715,0,0,0-1.222,1.3,2.009,2.009,0,0,0,.551,1.726,1.655,1.655,0,0,0,1.711.278A1.919,1.919,0,0,0,29.293,52.171Z"></path><path d="M34.683,51.948a1.718,1.718,0,0,0-1.275-1.411,1.833,1.833,0,0,0-.389-.043A1.785,1.785,0,0,0,31.405,51.7a1.5,1.5,0,0,0,.1,1.27,1.7,1.7,0,0,0,.453.5,1.567,1.567,0,0,0,.569.268,2,2,0,0,0,1.658-.387A1.651,1.651,0,0,0,34.683,51.948Z"></path><path d="M28.9,44.37a1.718,1.718,0,0,0-1.275-1.41,1.7,1.7,0,0,0-2,1.163,1.5,1.5,0,0,0,.1,1.269,1.667,1.667,0,0,0,.453.5,1.561,1.561,0,0,0,.568.267,2.006,2.006,0,0,0,1.659-.386A1.656,1.656,0,0,0,28.9,44.37Z"></path><path d="M30.443,54.337a1.633,1.633,0,0,0-1.565.591,1.8,1.8,0,0,0-.32,1.386,1.89,1.89,0,0,0,1.513,1.562,1.672,1.672,0,0,0,1.95-1.495A1.956,1.956,0,0,0,30.443,54.337Z"></path><path d="M37.678,54.64a2.1,2.1,0,0,0-1.256-.584,1.641,1.641,0,0,0-1.9,1.754,1.733,1.733,0,0,0,1.039,1.416,1.781,1.781,0,0,0,2.286-.961A1.613,1.613,0,0,0,37.678,54.64Z"></path><path data-name="Path" d="M41.155,51.768a1.814,1.814,0,0,0-1.647.534,1.562,1.562,0,0,0,1.1,2.634,1.637,1.637,0,0,0,1.563-1.119A1.744,1.744,0,0,0,41.664,52,1.321,1.321,0,0,0,41.155,51.768Z"></path><path d="M36.059,46.154A1.636,1.636,0,1,0,33.128,47.6a1.687,1.687,0,0,0,2.971.273A1.857,1.857,0,0,0,36.059,46.154Z"></path><path d="M43.044,48.525a1.45,1.45,0,1,0-2.6,1.281,1.5,1.5,0,0,0,2.633.242A1.647,1.647,0,0,0,43.044,48.525Z"></path><path d="M39.03,49.555a1.532,1.532,0,1,0-2.744,1.354,1.58,1.58,0,0,0,2.782.256A1.739,1.739,0,0,0,39.03,49.555Z"></path><path data-name="Path" d="M21.18,49.106a1.729,1.729,0,0,0-1.739-1.213,1.443,1.443,0,0,0-1.395,1.452A1.742,1.742,0,0,0,19.1,51.059a1.671,1.671,0,0,0,1.646-.349A1.542,1.542,0,0,0,21.18,49.106Z"></path><path d="M49.243,29.708A1.7,1.7,0,0,0,47.628,28.2a34.065,34.065,0,0,0-.989-3.334,13.769,13.769,0,0,0-1.41-2.758,15.04,15.04,0,0,0-4.324-4.224,21.12,21.12,0,0,0-6.4-2.615l0,0a.485.485,0,0,0-.074-.015c.367-3.676,1.219-11.2,1.24-11.288a.578.578,0,0,0-.388-.707c-.752-.143-1-.151-1.752-.275a9.287,9.287,0,0,0-1.9-.149c-.14.007-.28.018-.419.036a.593.593,0,0,0-.393.184.791.791,0,0,0-.133.464c-.073.736-.613,6.013-1.241,11.774-.3-.025-.593-.044-.891-.044a13.385,13.385,0,0,0-6.5,1.844,17,17,0,0,0-5.866,5.594A14.5,14.5,0,0,0,14.1,28.7c-1.021.437-2.226,1.217-1.771,2.5a2.685,2.685,0,0,0,2.257,1.433,85.966,85.966,0,0,0,.273,8.992,47.307,47.307,0,0,0,.9,6.176,24.563,24.563,0,0,0,1.887,5.569A11.608,11.608,0,0,0,22.715,58.7c2.693,1.332,6.7,1.573,9.642,1.461a22.409,22.409,0,0,0,4.291-.56,10.626,10.626,0,0,0,6.926-4.9,27.707,27.707,0,0,0,2.279-6.028,37.668,37.668,0,0,0,1.439-8.148c.139-1.935.067-6.532-.026-8.72C48.314,31.446,49.4,30.886,49.243,29.708ZM37.792,17.514a16.589,16.589,0,0,1,3.491,2.02,14.417,14.417,0,0,1,2.491,2.483,13.463,13.463,0,0,1,1.631,2.8,32.781,32.781,0,0,1,1.069,3.4C42.29,30.236,37.638,30.55,33.052,30.6c.12-1.6.249-3.336.353-4.517q.429-4.843.912-9.683C35.107,16.649,36.805,17.105,37.792,17.514ZM31.787,3.973c.23-.006.461,0,.692.015.808.081,1.31.13,1.976.239q-.426,3.814-.82,7.634c-.12,1.159-.226,2.32-.342,3.479-.233.019-.465.047-.7.06a16.394,16.394,0,0,1-1.945-.015C31.179,10.528,31.654,5.953,31.787,3.973ZM30.526,16.507c.183.013.366.033.547.038a20.894,20.894,0,0,0,2.108-.062q-.693,7.055-1.289,14.12l-.378,0q-1.283,0-2.565-.029C29.172,28.555,29.872,22.461,30.526,16.507ZM15.935,25.673a14.812,14.812,0,0,1,1.7-3.118,16.838,16.838,0,0,1,2.8-2.974,15.977,15.977,0,0,1,3.237-2.05,13.219,13.219,0,0,1,3.159-1,10.919,10.919,0,0,1,2.489-.112c-.649,5.947-1.326,12.106-1.533,14.126-1.448-.05-2.9-.136-4.336-.284a28.5,28.5,0,0,1-8.215-1.519.857.857,0,0,1,0-.2A12.047,12.047,0,0,1,15.935,25.673ZM45.919,42.888a47.014,47.014,0,0,1-2.03,7.941c-.862,2.716-1.8,4.831-3.881,6.219s-5.177,1.657-7.609,1.87a19.453,19.453,0,0,1-8.732-1.059,8.535,8.535,0,0,1-1.761-.946l-.021-.016a9.815,9.815,0,0,1-1.655-1.566,14,14,0,0,1-1.775-2.886A27.1,27.1,0,0,1,16.5,45.73a63.826,63.826,0,0,1-.77-10.093,7.284,7.284,0,0,0,6.219-.255,8.129,8.129,0,0,1,4.971-.859c1.646.188,3.024,1.063,4.631,1.327a6.1,6.1,0,0,0,3.509-.536,6.035,6.035,0,0,1,3.119-.7,18.462,18.462,0,0,1,2.847.637c1.811.44,3.828.534,5.206-.644A58,58,0,0,1,45.919,42.888ZM15.64,32.807c.43.043.733.048,1.052.091,1.959.268,4.029.474,6.012.646a23.511,23.511,0,0,1-3.3,1.261c-1.43.325-1.674.391-3.674-.359A6.569,6.569,0,0,1,15.64,32.807Zm14.177,1.141c.6.017,1.2.034,1.806.045-.007.149-.014.326-.021.509a8.945,8.945,0,0,1-1.591-.484C29.949,33.993,29.88,33.972,29.817,33.948Zm2.93.635c.014-.189.03-.39.045-.59.732,0,1.465-.006,2.2-.032-.246.1-.494.208-.751.306A4.705,4.705,0,0,1,32.747,34.583Zm6.781-.982a36,36,0,0,0,6.583-1.435l.006,0c.013.184.026.367.037.557a.649.649,0,0,0-.188.211C44.675,35.188,41.911,34.184,39.528,33.6Zm8.377-3.408a20.612,20.612,0,0,1-3.774,1.219,35.787,35.787,0,0,1-3.916.809,53.662,53.662,0,0,1-9.03.486c-2.924-.058-5.845-.268-8.759-.51-1.44-.12-2.88-.252-4.316-.426-.967-.117-1.934-.244-2.894-.414q-.505-.075-1-.193c-.779-.309-.6-.754-.182-1.082a1.26,1.26,0,0,1,.558-.211,34.027,34.027,0,0,0,7.623,1.535,74.4,74.4,0,0,0,9.3.484c5.353,0,10.814-.206,15.706-2.605C47.749,29.3,48.3,29.794,47.905,30.193Z"></path><path d="M44.079,41.885a.6.6,0,1,0-.6-.6A.605.605,0,0,0,44.079,41.885Z"></path><path d="M44.079,38.162a.6.6,0,1,0-.6-.6A.605.605,0,0,0,44.079,38.162Z"></path><path d="M41.326,39.58a.6.6,0,1,0-.6-.6A.605.605,0,0,0,41.326,39.58Z"></path></g></svg>