<svg height='300px' width='300px'  fill="#000000" xmlns="http://www.w3.org/2000/svg" viewBox="0 0 64 64" x="0px" y="0px"><g><rect x="2" y="60" width="2" height="2"></rect><path d="M51.707,57.707A1,1,0,0,0,52,57V13a1,1,0,0,0-.293-.707L49,9.586V4a1,1,0,0,0-1-1H16a1,1,0,0,0-1,1V9.586l-2.707,2.707A1,1,0,0,0,12,13V57a1,1,0,0,0,.293.707L14.586,60H6v2H62V60H49.414ZM50,51H14V19H50ZM47,5V9H17V5ZM16.414,11H47.586L50,13.414V17H14V13.414Zm1,49L14,56.586V53H50v3.586L46.586,60Z"></path><rect x="16" y="47" width="2" height="2"></rect><rect x="20" y="47" width="2" height="2"></rect><rect x="46" y="47" width="2" height="2"></rect><path d="M38.5,37A5.787,5.787,0,0,0,35,38.158c-.085-.064-.179-.115-.267-.174a5.608,5.608,0,0,0,.724-2.382A4.694,4.694,0,0,0,30.4,30.545a5.884,5.884,0,0,0-5.38,5.008,5.782,5.782,0,0,0-3.3,1.654,5.275,5.275,0,0,0-.354,7.425A4.74,4.74,0,0,0,24.756,46a5.6,5.6,0,0,0,2.625-.7A5.849,5.849,0,0,0,35,45.843,5.79,5.79,0,0,0,38.5,47,5.274,5.274,0,0,0,44,42,5.274,5.274,0,0,0,38.5,37ZM22.782,43.218a3.283,3.283,0,0,1,.355-4.6A3.713,3.713,0,0,1,25.746,37.5c.059,0,.118,0,.176.005a.981.981,0,0,0,.76-.292,1,1,0,0,0,.291-.76,3.7,3.7,0,0,1,1.113-2.785,3.772,3.772,0,0,1,2.43-1.131,2.7,2.7,0,0,1,2.943,2.943,3.771,3.771,0,0,1-1.13,2.43,3.665,3.665,0,0,1-2.787,1.112,1,1,0,0,0-1.05,1.052,3.7,3.7,0,0,1-1.113,2.786A3.285,3.285,0,0,1,22.782,43.218ZM38.5,45a3.7,3.7,0,0,1-2.757-1.179,1.03,1.03,0,0,0-1.486,0A3.7,3.7,0,0,1,31.5,45a3.783,3.783,0,0,1-2.526-.934,5.76,5.76,0,0,0,1.473-3.084,5.749,5.749,0,0,0,3.026-1.424,3.425,3.425,0,0,1,.784.621,1,1,0,0,0,1.486,0A3.7,3.7,0,0,1,38.5,39,3.283,3.283,0,0,1,42,42,3.283,3.283,0,0,1,38.5,45Z"></path><rect x="19" y="22" width="2" height="2"></rect><rect x="23" y="22" width="24" height="2"></rect><rect x="17" y="26" width="27" height="2"></rect></g></svg>