<svg height='300px' width='300px'  fill="#000000" xmlns="http://www.w3.org/2000/svg" data-name="Layer 1" viewBox="0 0 64 64" x="0px" y="0px"><title>Selected Raw Material</title><path d="M23.19,42.65c-1.62,3-2,7.62-2.08,9.08a25.19,25.19,0,0,0,.22,5.39.49.49,0,0,0,.92.14l2-3.81a1,1,0,1,1,1.75.9L23,60.2a3.44,3.44,0,0,0,1.58.32A9.13,9.13,0,0,0,26,60.38c3.55-.58,9.82-3.19,12.77-6.2C37.18,50.59,32.63,42.64,23.19,42.65ZM33.06,54a1,1,0,1,1-.23-1.37A1,1,0,0,1,33.06,54Z"></path><path d="M60,18.53a1,1,0,0,0-.93-.79l-5.8-.19-2.06-5.43a1,1,0,0,0-1.9.28l-.7,10a139.92,139.92,0,0,0-14.18,9.24L34.3,30a1,1,0,0,0-1.78-.49,17.76,17.76,0,0,0-2.74,5.91,44.49,44.49,0,0,0-5.24,5.33c8.78.66,13.53,7.68,15.55,11.73.79-1.16,1.53-2.36,2.22-3.6l8.46-4.71a1,1,0,0,0-.38-1.84l-4.81-.5a90.37,90.37,0,0,0,4.87-18.13l9-4.06A1,1,0,0,0,60,18.53Z"></path><path d="M16.83,31.37,14.75,29.8a1,1,0,0,0-.6-.2h-1a11.81,11.81,0,0,1,1.54-1.37,8.92,8.92,0,0,1-1.54-1.34,19.27,19.27,0,0,1-4-7.3c-.38.35-.76.71-1.13,1.1a18.73,18.73,0,0,0-2.8,3.86c.84,2.51,3.62,5.53,6.25,7.23l.17-.26a1,1,0,0,0,.27.06h1.9l1.81,1.37a1,1,0,0,0,1.18-1.57Z"></path><path d="M20.11,28.29l-1.17-1.7a1,1,0,0,0-.21-.22l-.19-.15c.53-.19,1.09-.37,1.68-.53a14.7,14.7,0,0,1-4.36-10.08c0-.11,0-.21,0-.32a25.42,25.42,0,0,0-5.06,2.91,17,17,0,0,0,3.74,7.35,6.65,6.65,0,0,0,1.52,1.25l1.31,1,1.08,1.57a1,1,0,0,0,1.62-1.11Z"></path><path d="M18.65,54.17l-9-5.89a40.89,40.89,0,0,1-.38-8.75C7.13,38.71,4.7,36.47,3,34.42c.2,4.5,1.8,9.44,4.75,14.71a19.58,19.58,0,0,0,3.68,11,1,1,0,0,0,1.74-.75l-.66-4.7A53.14,53.14,0,0,0,17.93,56a1,1,0,0,0,.72-1.79Z"></path><path d="M14,36.54l-1.17-1.7a1,1,0,0,0-1-.41l-1.58.31c.13-.4.24-.81.4-1.18A19.73,19.73,0,0,1,4.16,26.9a18.3,18.3,0,0,0-1,4.25,18.49,18.49,0,0,0,6.39,6.37c0-.23.1-.44.14-.66l1.86-.36.8,1.17A1,1,0,1,0,14,36.54Z"></path><path d="M33.67,3.53a1,1,0,0,0-.57,1.88c.5.15,12.26,3.82,9.71,13.17-.63,2.31-3.43,3.35-6.55,3.78a8.17,8.17,0,0,0,4.42-5.54,6,6,0,0,0-1-5c-3.16-4.47-12-5.6-12.36-5.65a1,1,0,0,0-1.1.86,1,1,0,0,0,.86,1.1c.08,0,8.33,1.06,11,4.83a4.07,4.07,0,0,1,.65,3.4c-1,4.34-5.92,5.52-9.43,5.81a7.22,7.22,0,0,0,1.14-1.95l2.67-6.9A1,1,0,0,0,32.11,12l-9.55,1.33A25.31,25.31,0,0,0,18,14.46a4.61,4.61,0,0,0-.19,1.86,13,13,0,0,0,4.71,8.84c.51-.1,1-.19,1.61-.28l.73-.12a7.19,7.19,0,0,0,1.61-.46,48.14,48.14,0,0,0,5.47.33c5.14,0,11.5-1,12.74-5.52C47.16,10.13,38.56,5,33.67,3.53Zm-8.79,13.3a.92.92,0,1,1,1,.79A.92.92,0,0,1,24.88,16.82Z"></path></svg>