<svg height='300px' width='300px'  fill="#000000" xmlns="http://www.w3.org/2000/svg" xmlns:xlink="http://www.w3.org/1999/xlink" version="1.1" x="0px" y="0px" viewBox="0 0 100 100" enable-background="new 0 0 100 100" xml:space="preserve"><g><path d="M32.091,27.917c9.724,0,17.341-5.051,17.341-11.5s-7.617-11.5-17.341-11.5S14.75,9.968,14.75,16.417   S22.367,27.917,32.091,27.917z M32.091,7.417c8.045,0,14.841,4.122,14.841,9s-6.796,9-14.841,9s-14.841-4.122-14.841-9   S24.046,7.417,32.091,7.417z"></path><path d="M39.148,42.06c-1.667-0.794-2.871-1.368-3.941-1.368c-0.922,0-2.469,0.433-2.469,3.33c0,6.448,7.617,11.5,17.341,11.5   c9.725,0,17.342-5.051,17.342-11.5c0-3.005-2.06-3.33-2.944-3.33c-1.407,0-3.172,0.679-5.404,1.54   c-2.974,1.145-6.674,2.57-10.329,2.57C44.904,44.802,41.578,43.217,39.148,42.06z M59.971,44.565   c1.832-0.706,3.563-1.373,4.506-1.373c0.232,0,0.31,0.043,0.311,0.043c0.004,0.004,0.134,0.164,0.134,0.787   c0,4.962-6.658,9-14.842,9c-8.044,0-14.841-4.121-14.841-9c0-0.441,0.042-0.691,0.077-0.822c0.555,0.067,1.674,0.601,2.758,1.117   c2.645,1.26,6.266,2.985,10.67,2.985C52.863,47.302,56.804,45.785,59.971,44.565z"></path><path d="M66.688,39.875c0.9,0,1.885-0.099,2.952-0.315c10.345-2.104,17.057-21.618,17.429-22.724   c0.014-0.037,0.024-0.075,0.034-0.113c0.009-0.032,0.016-0.064,0.021-0.097c0.235-1.293,0.76-5.565-2.032-7.589   c-1.113-0.806-2.522-1.317-4.188-1.519c-3.993-0.476-7.301,2.18-8.822,5.032c-0.48,0.903-0.843,1.813-1.233,2.824   c-0.726,1.881-1.164,3.606-1.339,5.275c-0.138,1.304-0.157,2.61-0.177,3.874l-0.019,0.939c-0.009,0.292-0.018,0.602-0.008,0.926   c-0.087,0.027-0.174,0.053-0.263,0.079c-7.939,2.298-9.942,6.427-9.244,9.265C60.337,37.915,62.677,39.875,66.688,39.875z    M71.832,24.561c0.02-1.208,0.038-2.458,0.164-3.651c0.152-1.447,0.539-2.964,1.185-4.637c0.36-0.933,0.692-1.769,1.107-2.548   c1.004-1.881,3.169-3.763,5.702-3.763c0.202,0,0.407,0.012,0.613,0.037c1.24,0.149,2.257,0.506,3.021,1.061   c1.242,0.9,1.372,3.1,1.072,4.932c-0.56,0.943-4.003,6.212-12.884,9.541L71.832,24.561z M69.739,28.868   c0.329-0.095,0.639-0.198,0.948-0.301l0.349-0.115c0.009-0.002,0.017-0.005,0.025-0.008c0.008-0.002,0.016-0.005,0.024-0.008   c4.868-1.59,8.385-3.733,10.854-5.735c-2.73,5.748-7.291,13.289-12.798,14.409c-4.021,0.819-6.521-0.375-6.915-1.975   C61.761,33.236,64.19,30.474,69.739,28.868z"></path><rect x="20.557" y="13.75" transform="matrix(0.7071 0.7071 -0.7071 0.7071 16.9038 -10.8094)" width="1.885" height="2.5"></rect><rect x="29.709" y="20.583" transform="matrix(-0.7821 0.6232 -0.6232 -0.7821 68.9318 19.5605)" width="2.674" height="2.5"></rect><rect x="37.167" y="10.583" width="1.542" height="2.5"></rect><rect x="55.899" y="48.135" width="2.029" height="2.5"></rect><rect x="41.642" y="47.496" transform="matrix(-0.5401 -0.8416 0.8416 -0.5401 24.2758 110.7583)" width="1.519" height="2.501"></rect><path d="M21.185,60.242c0.919,0,1.834-0.123,2.718-0.364c6.044-1.654,8.038-7.986,5.47-17.375   c-2.212-8.086-6.178-12.54-11.168-12.54c-0.779,0-1.584,0.112-2.395,0.334c-6.616,1.81-10.183,9.917-7.952,18.073   C9.77,55.36,15.25,60.242,21.185,60.242z M16.47,32.709c0.595-0.163,1.178-0.245,1.734-0.245c5.261,0,7.876,7.482,8.757,10.7   c1.263,4.616,2.459,12.613-3.719,14.302c-0.668,0.184-1.361,0.276-2.058,0.276c-4.734,0-9.325-4.219-10.916-10.031   C8.402,40.885,11.183,34.155,16.47,32.709z"></path><path d="M83.457,63.917c-0.715-4.012-4.78-9-12.66-9c-6.52,0-10.049,5.441-11.281,9H7.188v29.25h2.5V78.083h9.979v-2.5H9.688   v-9.166h1.396v6.75h2.5v-6.75h1.676v6.75h2.5v-6.75h1.676v6.75h2.5v-6.75h1.676v6.75h2.5v-6.75h1.676v6.75h2.5v-6.75h1.676v6.75   h2.5v-6.75h1.676v6.75h2.5v-6.75h1.676v6.75h2.5v-6.75h1.676v6.75h2.5v-6.75h1.676v6.75h2.5v-6.75h1.677v6.75h2.5v-6.75h1.676v6.75   h2.5v-6.75h1.676v6.75h2.5v-6.75h1.676v6.75h2.5v-6.75h1.677v6.75h2.5v-6.75h1.676v6.75h2.5v-6.75h1.676v6.75h2.5v-6.75h1.676v6.75   h2.5v-6.75h1.676v6.75h2.5v-6.75h1.333v9.166H21.5v2.5h68.583v15.084h2.5v-29.25H83.457z M70.797,57.417   c6.255,0,9.355,3.735,10.1,6.5H62.207C63.21,61.568,65.699,57.417,70.797,57.417z"></path><polygon points="17.576,93.167 20.076,93.167 20.076,86.25 80.083,86.25 80.083,93.167 82.583,93.167 82.583,83.75 17.576,83.75     "></polygon><rect x="12.033" y="41.471" transform="matrix(0.741 0.6715 -0.6715 0.741 32.1052 2.2061)" width="2.32" height="2.5"></rect><rect x="17.583" y="51.152" transform="matrix(0.4472 0.8944 -0.8944 0.4472 56.9957 11.9461)" width="2.5" height="1.863"></rect><rect x="19.667" y="37.371" width="1.833" height="2.5"></rect><rect x="20.645" y="45.417" transform="matrix(-0.8516 -0.5242 0.5242 -0.8516 16.1199 97.8969)" width="2.544" height="2.5"></rect><rect x="77.084" y="13.891" transform="matrix(-0.7016 -0.7126 0.7126 -0.7016 122.3387 81.98)" width="2.5" height="2.969"></rect><rect x="64.996" y="33" transform="matrix(0.93 0.3676 -0.3676 0.93 17.2203 -21.9108)" width="2.266" height="2.501"></rect><rect x="73.142" y="21" width="2.5" height="1.667"></rect><rect x="66.62" y="60.917" width="1.88" height="2.5"></rect><rect x="73.297" y="58.834" transform="matrix(-0.7838 -0.6211 0.6211 -0.7838 95.1027 153.2803)" width="1.879" height="2.5"></rect><rect x="28.75" y="8.712" width="2.5" height="2.288"></rect><rect x="49.44" y="49.167" transform="matrix(0.8993 0.4373 -0.4373 0.8993 27.1246 -16.962)" width="1.906" height="2.5"></rect></g></svg>