<svg height='300px' width='300px'  fill="#000000" xmlns="http://www.w3.org/2000/svg" xmlns:xlink="http://www.w3.org/1999/xlink" version="1.1" x="0px" y="0px" viewBox="0 0 95 95" enable-background="new 0 0 95 95" xml:space="preserve"><g><path d="M66.4,37.6c1.3-1.4,1.4-1.4,2.4-1c1.5,0.5,3.5,1.2,8.9-4.5l15.9-16.7c0.4-0.4,0.4-1.1-0.1-1.6l0,0   c-0.4-0.5-1.1-0.5-1.5-0.1L78.6,27.9c-0.7,0.7-1.6,0.9-2,0.4l0,0c-0.4-0.5-0.3-1.4,0.4-2.1l13.4-14.1c0.4-0.4,0.4-1.1-0.1-1.6   l-0.1-0.1c-0.4-0.5-1.1-0.5-1.5-0.1L75.4,24.5c-0.7,0.7-1.6,0.9-2,0.4l0,0l0,0l0,0l0,0c-0.4-0.5-0.3-1.4,0.4-2.1L87.1,8.6   C87.5,8.2,87.5,7.5,87,7l-0.1-0.1c-0.4-0.5-1.1-0.5-1.5-0.1L72,21c-0.7,0.7-1.6,0.9-2,0.4l0,0c-0.4-0.5-0.3-1.4,0.4-2.1L83.8,5.2   c0.4-0.4,0.4-1.1-0.1-1.6l0,0c-0.4-0.5-1.1-0.5-1.5-0.1L66.4,20.2c-5.5,5.7-4.8,7.9-4.3,9.4c0.3,1,0.5,1.6-0.8,2.9L48,46.4   c-1.5-1.6-1.9-2.1-1.9-2.1c-1.1-1.3-1-2.2-0.8-3.4c0.1-0.8,0.3-1.8,0-3.1c-0.7-4.1-24-24-32.7-30.9c-7-5.6-9.8-4.4-10.8-3.2   c-1.6,1.9-0.6,6,2,8.8c1.6,1.7,20.4,21.3,38.3,40l-10.5,11c-5.6-0.2-11.8,6.8-13.7,10.2c-5.3,9.2-2.7,18.7-2.7,18.7   c2.9-5.1,8.6-4.8,12.7-7.4c5.1-3.2,12.2-11.4,9.4-17.4l0,0C36,68,34.1,68.5,33,69c-1.2,0.7-2.6,1.2-3.7,2l-1.8,1.1   c-0.6,0.4-1.1,0.9-1.7,1.3c-0.5,0.5-1.1,0.9-1.6,1.4s-1,1-1.4,1.5c-1,0.9-1.7,2.1-2.4,3.1c-0.4,0.5-0.8,1-1,1.5   c-0.3,0.5-0.6,1-0.8,1.5c-0.5,1-1.1,1.9-1.4,2.7c-0.3,0.9-0.6,1.6-0.8,2.2c-0.5,1.2-0.7,1.9-0.7,1.9s0.2-0.7,0.6-2   c0.2-0.6,0.4-1.4,0.7-2.3c0.3-0.9,0.8-1.8,1.2-2.8c0.2-0.5,0.5-1.1,0.7-1.6c0.3-0.5,0.6-1.1,1-1.6c0.7-1.1,1.3-2.3,2.3-3.4   c0.4-0.5,0.9-1.1,1.4-1.7s1-1,1.6-1.6c0.5-0.5,1.1-1,1.6-1.5l1.8-1.3c1.2-1,2.5-1.6,3.8-2.4c1.3-0.7,2.6-1.3,3.9-1.8   c1.3-0.5,2.6-1,3.8-1.3c0.3-0.1,0.8-0.2,1.2-0.3l5.9-6.2c2,2.1,4,4.2,5.9,6.2c0.4,0.1,0.8,0.2,1.2,0.3c1.2,0.3,2.5,0.8,3.8,1.3   s2.6,1.2,3.9,1.8c1.3,0.8,2.6,1.4,3.8,2.4l1.8,1.3c0.6,0.5,1.1,1,1.6,1.5s1.1,1,1.6,1.6s0.9,1.1,1.4,1.7c1,1,1.6,2.3,2.3,3.4   c0.3,0.6,0.7,1.1,1,1.6c0.2,0.6,0.5,1.1,0.7,1.6c0.4,1,0.9,2,1.2,2.8c0.3,0.9,0.5,1.7,0.7,2.3c0.4,1.3,0.6,2,0.6,2   s-0.3-0.7-0.7-1.9c-0.2-0.6-0.5-1.4-0.8-2.2c-0.3-0.9-0.9-1.7-1.4-2.7c-0.3-0.5-0.5-1-0.8-1.5s-0.7-1-1-1.5c-0.7-1-1.5-2.1-2.4-3.1   c-0.5-0.5-0.9-1-1.4-1.5s-1.1-0.9-1.6-1.4c-0.6-0.4-1.1-0.9-1.7-1.3l-1.8-1.2c-1.2-0.8-2.5-1.3-3.7-2c-1.2-0.5-3.1-1-4.3-1.4l0,0   c-2.8,6,4.3,14.2,9.4,17.4c4.2,2.7,9.8,2.3,12.7,7.4c0,0,2.5-9.5-2.7-18.7c-1.7-3-6.9-9-11.9-10L53.3,51.4"></path></g></svg>